<svg width="472" height="43" viewBox="0 0 472 43" fill="none" xmlns="http://www.w3.org/2000/svg">
<g filter="url(#filter0_d_1_23)">
<mask id="path-1-outside-1_1_23" maskUnits="userSpaceOnUse" x="0" y="0" width="472" height="39" fill="black">
<rect fill="white" width="472" height="39"/>
<path d="M17.475 26.2H9.859L8.771 31H4.355L9.699 8.6H17.635L22.979 31H18.563L17.475 26.2ZM10.755 22.168H16.547L13.955 10.712H13.379L10.755 22.168ZM29.9968 31H25.9648V15.128H29.9968V17.496H30.5728C30.9354 16.6 31.5221 15.9067 32.3328 15.416C33.1434 14.9253 34.0928 14.68 35.1808 14.68C35.9488 14.68 36.6634 14.808 37.3248 15.064C38.0074 15.2987 38.6048 15.672 39.1168 16.184C39.6288 16.696 40.0234 17.3467 40.3008 18.136C40.5994 18.9253 40.7488 19.864 40.7488 20.952V31H36.7168V21.976C36.7168 20.8453 36.4394 19.96 35.8848 19.32C35.3514 18.6587 34.5728 18.328 33.5488 18.328C32.3541 18.328 31.4581 18.7333 30.8608 19.544C30.2848 20.3333 29.9968 21.4 29.9968 22.744V31ZM45.1105 15.128H49.8145V8.6H53.8465V15.128H59.5745V18.968H53.8465V26.2C53.8465 26.84 54.1345 27.16 54.7105 27.16H58.9985V31H52.2785C51.5532 31 50.9558 30.7653 50.4865 30.296C50.0385 29.8267 49.8145 29.2293 49.8145 28.504V18.968H45.1105V15.128ZM80.7043 23.256C80.7043 24.5787 80.4803 25.752 80.0323 26.776C79.5843 27.7787 78.9763 28.632 78.2083 29.336C77.4403 30.0187 76.5549 30.5413 75.5523 30.904C74.5709 31.2667 73.5363 31.448 72.4483 31.448C71.3603 31.448 70.3149 31.2667 69.3123 30.904C68.3309 30.5413 67.4563 30.0187 66.6883 29.336C65.9203 28.632 65.3123 27.7787 64.8643 26.776C64.4163 25.752 64.1923 24.5787 64.1923 23.256V22.872C64.1923 21.5707 64.4163 20.4187 64.8643 19.416C65.3123 18.392 65.9203 17.528 66.6883 16.824C67.4563 16.12 68.3309 15.5867 69.3123 15.224C70.3149 14.8613 71.3603 14.68 72.4483 14.68C73.5363 14.68 74.5709 14.8613 75.5523 15.224C76.5549 15.5867 77.4403 16.12 78.2083 16.824C78.9763 17.528 79.5843 18.392 80.0323 19.416C80.4803 20.4187 80.7043 21.5707 80.7043 22.872V23.256ZM72.4483 27.608C73.0243 27.608 73.5683 27.512 74.0803 27.32C74.5923 27.128 75.0403 26.8507 75.4243 26.488C75.8083 26.1253 76.1069 25.688 76.3203 25.176C76.5549 24.6427 76.6723 24.0453 76.6723 23.384V22.744C76.6723 22.0827 76.5549 21.496 76.3203 20.984C76.1069 20.4507 75.8083 20.0027 75.4243 19.64C75.0403 19.2773 74.5923 19 74.0803 18.808C73.5683 18.616 73.0243 18.52 72.4483 18.52C71.8723 18.52 71.3283 18.616 70.8163 18.808C70.3043 19 69.8563 19.2773 69.4723 19.64C69.0883 20.0027 68.7789 20.4507 68.5443 20.984C68.3309 21.496 68.2243 22.0827 68.2243 22.744V23.384C68.2243 24.0453 68.3309 24.6427 68.5443 25.176C68.7789 25.688 69.0883 26.1253 69.4723 26.488C69.8563 26.8507 70.3043 27.128 70.8163 27.32C71.3283 27.512 71.8723 27.608 72.4483 27.608ZM85.034 27.16H90.41V18.968H85.418V15.128H94.442V27.16H99.05V31H85.034V27.16ZM95.434 10.424C95.434 10.8507 95.3487 11.256 95.178 11.64C95.0287 12.0027 94.8153 12.3227 94.538 12.6C94.2607 12.856 93.93 13.0693 93.546 13.24C93.1833 13.3893 92.7993 13.464 92.394 13.464C91.9673 13.464 91.5727 13.3893 91.21 13.24C90.8473 13.0693 90.5273 12.856 90.25 12.6C89.9727 12.3227 89.7487 12.0027 89.578 11.64C89.4287 11.256 89.354 10.8507 89.354 10.424C89.354 9.99733 89.4287 9.60267 89.578 9.24C89.7487 8.856 89.9727 8.536 90.25 8.28C90.5273 8.00267 90.8473 7.78933 91.21 7.64C91.5727 7.46933 91.9673 7.384 92.394 7.384C92.7993 7.384 93.1833 7.46933 93.546 7.64C93.93 7.78933 94.2607 8.00267 94.538 8.28C94.8153 8.536 95.0287 8.856 95.178 9.24C95.3487 9.60267 95.434 9.99733 95.434 10.424ZM108.372 31H104.34V15.128H108.372V17.496H108.948C109.31 16.6 109.897 15.9067 110.708 15.416C111.518 14.9253 112.468 14.68 113.556 14.68C114.324 14.68 115.038 14.808 115.7 15.064C116.382 15.2987 116.98 15.672 117.492 16.184C118.004 16.696 118.398 17.3467 118.676 18.136C118.974 18.9253 119.124 19.864 119.124 20.952V31H115.092V21.976C115.092 20.8453 114.814 19.96 114.26 19.32C113.726 18.6587 112.948 18.328 111.924 18.328C110.729 18.328 109.833 18.7333 109.236 19.544C108.66 20.3333 108.372 21.4 108.372 22.744V31ZM127.486 24.376C127.507 24.8453 127.614 25.2827 127.806 25.688C128.019 26.072 128.296 26.4133 128.638 26.712C129 26.9893 129.406 27.2133 129.854 27.384C130.323 27.5333 130.814 27.608 131.326 27.608C132.328 27.608 133.096 27.4373 133.63 27.096C134.163 26.7333 134.547 26.3067 134.782 25.816L138.238 27.736C138.046 28.1413 137.779 28.568 137.438 29.016C137.096 29.4427 136.648 29.8373 136.094 30.2C135.56 30.5627 134.899 30.8613 134.11 31.096C133.342 31.3307 132.435 31.448 131.39 31.448C130.195 31.448 129.107 31.256 128.126 30.872C127.144 30.488 126.291 29.9333 125.566 29.208C124.862 28.4827 124.307 27.5973 123.902 26.552C123.518 25.5067 123.326 24.3227 123.326 23V22.808C123.326 21.592 123.528 20.4827 123.934 19.48C124.36 18.4773 124.936 17.624 125.661 16.92C126.387 16.216 127.23 15.672 128.19 15.288C129.171 14.8827 130.216 14.68 131.326 14.68C132.691 14.68 133.864 14.9253 134.846 15.416C135.827 15.8853 136.638 16.4933 137.278 17.24C137.918 17.9653 138.387 18.776 138.686 19.672C138.984 20.5467 139.134 21.4 139.134 22.232V24.376H127.486ZM131.294 18.328C130.27 18.328 129.438 18.5947 128.798 19.128C128.158 19.64 127.742 20.2373 127.55 20.92H135.038C134.91 20.1733 134.504 19.5547 133.822 19.064C133.16 18.5733 132.318 18.328 131.294 18.328ZM163.249 8.6H167.473V26.968H177.649V31H163.249V8.6ZM193.467 15.128H197.499V31H193.467V28.696H192.891C192.187 30.5307 190.672 31.448 188.347 31.448C187.557 31.448 186.821 31.32 186.139 31.064C185.456 30.808 184.859 30.4133 184.347 29.88C183.835 29.3467 183.429 28.6853 183.131 27.896C182.853 27.0853 182.715 26.136 182.715 25.048V15.128H186.747V24.216C186.747 25.3467 187.013 26.232 187.547 26.872C188.08 27.4907 188.88 27.8 189.947 27.8C191.163 27.8 192.048 27.416 192.603 26.648C193.179 25.8587 193.467 24.792 193.467 23.448V15.128ZM217.797 25.176C217.434 27.0533 216.57 28.568 215.205 29.72C213.861 30.872 212.058 31.448 209.797 31.448C208.623 31.448 207.525 31.2667 206.501 30.904C205.498 30.5413 204.623 30.0187 203.877 29.336C203.13 28.6533 202.543 27.8107 202.117 26.808C201.69 25.8053 201.477 24.664 201.477 23.384V23C201.477 21.72 201.69 20.568 202.117 19.544C202.543 18.52 203.13 17.6453 203.877 16.92C204.645 16.1947 205.53 15.64 206.533 15.256C207.557 14.872 208.645 14.68 209.797 14.68C212.015 14.68 213.807 15.256 215.173 16.408C216.559 17.56 217.434 19.0747 217.797 20.952L213.829 21.976C213.701 21.0373 213.295 20.2267 212.613 19.544C211.93 18.8613 210.97 18.52 209.733 18.52C209.157 18.52 208.613 18.6267 208.101 18.84C207.589 19.0533 207.141 19.3627 206.757 19.768C206.373 20.152 206.063 20.632 205.829 21.208C205.615 21.7627 205.509 22.392 205.509 23.096V23.288C205.509 23.992 205.615 24.6213 205.829 25.176C206.063 25.7093 206.373 26.1573 206.757 26.52C207.141 26.8827 207.589 27.16 208.101 27.352C208.613 27.5227 209.157 27.608 209.733 27.608C210.97 27.608 211.909 27.2987 212.549 26.68C213.21 26.0613 213.637 25.2293 213.829 24.184L217.797 25.176ZM222.19 27.16H227.566V18.968H222.574V15.128H231.598V27.16H236.206V31H222.19V27.16ZM232.59 10.424C232.59 10.8507 232.505 11.256 232.334 11.64C232.185 12.0027 231.972 12.3227 231.694 12.6C231.417 12.856 231.086 13.0693 230.702 13.24C230.34 13.3893 229.956 13.464 229.55 13.464C229.124 13.464 228.729 13.3893 228.366 13.24C228.004 13.0693 227.684 12.856 227.406 12.6C227.129 12.3227 226.905 12.0027 226.734 11.64C226.585 11.256 226.51 10.8507 226.51 10.424C226.51 9.99733 226.585 9.60267 226.734 9.24C226.905 8.856 227.129 8.536 227.406 8.28C227.684 8.00267 228.004 7.78933 228.366 7.64C228.729 7.46933 229.124 7.384 229.55 7.384C229.956 7.384 230.34 7.46933 230.702 7.64C231.086 7.78933 231.417 8.00267 231.694 8.28C231.972 8.536 232.185 8.856 232.334 9.24C232.505 9.60267 232.59 9.99733 232.59 10.424ZM251.768 28.696C251.341 29.6987 250.744 30.4133 249.976 30.84C249.208 31.2453 248.312 31.448 247.288 31.448C246.328 31.448 245.421 31.2667 244.568 30.904C243.736 30.5413 243 30.008 242.36 29.304C241.72 28.6 241.208 27.7467 240.824 26.744C240.461 25.7413 240.28 24.6 240.28 23.32V22.808C240.28 21.5493 240.461 20.4187 240.824 19.416C241.187 18.4133 241.677 17.56 242.296 16.856C242.915 16.152 243.629 15.6187 244.44 15.256C245.272 14.872 246.157 14.68 247.096 14.68C248.227 14.68 249.133 14.872 249.816 15.256C250.52 15.64 251.075 16.2373 251.48 17.048H252.056V15.128H256.088V26.2C256.088 26.84 256.376 27.16 256.952 27.16H257.56V31H254.808C254.083 31 253.485 30.7867 253.016 30.36C252.568 29.9333 252.344 29.3787 252.344 28.696H251.768ZM248.184 27.608C249.357 27.608 250.296 27.224 251 26.456C251.704 25.6667 252.056 24.6 252.056 23.256V22.872C252.056 21.528 251.704 20.472 251 19.704C250.296 18.9147 249.357 18.52 248.184 18.52C247.011 18.52 246.072 18.9147 245.368 19.704C244.664 20.472 244.312 21.528 244.312 22.872V23.256C244.312 24.6 244.664 25.6667 245.368 26.456C246.072 27.224 247.011 27.608 248.184 27.608ZM265.122 31H261.09V15.128H265.122V17.496H265.698C266.06 16.6 266.647 15.9067 267.458 15.416C268.268 14.9253 269.218 14.68 270.306 14.68C271.074 14.68 271.788 14.808 272.45 15.064C273.132 15.2987 273.73 15.672 274.242 16.184C274.754 16.696 275.148 17.3467 275.426 18.136C275.724 18.9253 275.874 19.864 275.874 20.952V31H271.842V21.976C271.842 20.8453 271.564 19.96 271.01 19.32C270.476 18.6587 269.698 18.328 268.674 18.328C267.479 18.328 266.583 18.7333 265.986 19.544C265.41 20.3333 265.122 21.4 265.122 22.744V31ZM280.972 27.16H286.348V18.968H281.356V15.128H290.38V27.16H294.988V31H280.972V27.16ZM291.372 10.424C291.372 10.8507 291.286 11.256 291.116 11.64C290.966 12.0027 290.753 12.3227 290.476 12.6C290.198 12.856 289.868 13.0693 289.484 13.24C289.121 13.3893 288.737 13.464 288.332 13.464C287.905 13.464 287.51 13.3893 287.148 13.24C286.785 13.0693 286.465 12.856 286.188 12.6C285.91 12.3227 285.686 12.0027 285.516 11.64C285.366 11.256 285.292 10.8507 285.292 10.424C285.292 9.99733 285.366 9.60267 285.516 9.24C285.686 8.856 285.91 8.536 286.188 8.28C286.465 8.00267 286.785 7.78933 287.148 7.64C287.51 7.46933 287.905 7.384 288.332 7.384C288.737 7.384 289.121 7.46933 289.484 7.64C289.868 7.78933 290.198 8.00267 290.476 8.28C290.753 8.536 290.966 8.856 291.116 9.24C291.286 9.60267 291.372 9.99733 291.372 10.424ZM335.615 31.96V35.992H334.271C332.692 35.992 331.188 35.7573 329.759 35.288C328.351 34.84 327.114 34.1253 326.047 33.144C324.98 32.184 324.127 30.9467 323.487 29.432C322.868 27.9173 322.559 26.1147 322.559 24.024V15.576C322.559 13.4853 322.868 11.6827 323.487 10.168C324.127 8.65333 324.98 7.416 326.047 6.456C327.114 5.47467 328.351 4.76 329.759 4.312C331.188 3.84266 332.692 3.608 334.271 3.608H335.615V7.64H334.463C333.354 7.64 332.33 7.78933 331.391 8.088C330.452 8.38667 329.631 8.86667 328.927 9.528C328.244 10.1893 327.7 11.0427 327.295 12.088C326.911 13.112 326.719 14.36 326.719 15.832V23.768C326.719 25.24 326.911 26.4987 327.295 27.544C327.7 28.568 328.244 29.4107 328.927 30.072C329.631 30.7333 330.452 31.2133 331.391 31.512C332.33 31.8107 333.354 31.96 334.463 31.96H335.615ZM350.569 26.2H342.953L341.865 31H337.449L342.793 8.6H350.729L356.073 31H351.657L350.569 26.2ZM343.849 22.168H349.641L347.049 10.712H346.473L343.849 22.168ZM363.091 31H359.059V15.128H363.091V17.496H363.667C364.029 16.6 364.616 15.9067 365.427 15.416C366.237 14.9253 367.187 14.68 368.275 14.68C369.043 14.68 369.757 14.808 370.419 15.064C371.101 15.2987 371.699 15.672 372.211 16.184C372.723 16.696 373.117 17.3467 373.395 18.136C373.693 18.9253 373.843 19.864 373.843 20.952V31H369.811V21.976C369.811 20.8453 369.533 19.96 368.979 19.32C368.445 18.6587 367.667 18.328 366.643 18.328C365.448 18.328 364.552 18.7333 363.955 19.544C363.379 20.3333 363.091 21.4 363.091 22.744V31ZM378.204 15.128H382.908V8.6H386.94V15.128H392.668V18.968H386.94V26.2C386.94 26.84 387.228 27.16 387.804 27.16H392.092V31H385.372C384.647 31 384.05 30.7653 383.58 30.296C383.132 29.8267 382.908 29.2293 382.908 28.504V18.968H378.204V15.128ZM398.15 27.16H403.718V12.44H398.342V8.6H407.75V27.16H412.934V31H398.15V27.16ZM428.592 15.128H432.624V31H428.592V28.696H428.016C427.312 30.5307 425.797 31.448 423.472 31.448C422.682 31.448 421.946 31.32 421.264 31.064C420.581 30.808 419.984 30.4133 419.472 29.88C418.96 29.3467 418.554 28.6853 418.256 27.896C417.978 27.0853 417.84 26.136 417.84 25.048V15.128H421.872V24.216C421.872 25.3467 422.138 26.232 422.672 26.872C423.205 27.4907 424.005 27.8 425.072 27.8C426.288 27.8 427.173 27.416 427.728 26.648C428.304 25.8587 428.592 24.792 428.592 23.448V15.128ZM447.962 15.128H452.41L448.57 22.584V23.16L452.634 31H447.994L445.018 24.792H444.442L441.466 31H436.826L440.89 23.16V22.584L437.018 15.128H441.498L444.442 20.952H445.018L447.962 15.128ZM457.027 31.96C458.137 31.96 459.161 31.8107 460.099 31.512C461.038 31.2133 461.849 30.7333 462.531 30.072C463.235 29.4107 463.779 28.568 464.163 27.544C464.569 26.4987 464.771 25.24 464.771 23.768V15.832C464.771 14.36 464.569 13.112 464.163 12.088C463.779 11.0427 463.235 10.1893 462.531 9.528C461.849 8.86667 461.038 8.38667 460.099 8.088C459.161 7.78933 458.137 7.64 457.027 7.64H455.875V3.608H457.219C458.798 3.608 460.291 3.84266 461.699 4.312C463.129 4.76 464.377 5.47467 465.443 6.456C466.51 7.416 467.353 8.65333 467.971 10.168C468.611 11.6827 468.931 13.4853 468.931 15.576V24.024C468.931 26.1147 468.611 27.9173 467.971 29.432C467.353 30.9467 466.51 32.184 465.443 33.144C464.377 34.1253 463.129 34.84 461.699 35.288C460.291 35.7573 458.798 35.992 457.219 35.992H455.875V31.96H457.027Z"/>
</mask>
<path d="M17.475 26.2H9.859L8.771 31H4.355L9.699 8.6H17.635L22.979 31H18.563L17.475 26.2ZM10.755 22.168H16.547L13.955 10.712H13.379L10.755 22.168ZM29.9968 31H25.9648V15.128H29.9968V17.496H30.5728C30.9354 16.6 31.5221 15.9067 32.3328 15.416C33.1434 14.9253 34.0928 14.68 35.1808 14.68C35.9488 14.68 36.6634 14.808 37.3248 15.064C38.0074 15.2987 38.6048 15.672 39.1168 16.184C39.6288 16.696 40.0234 17.3467 40.3008 18.136C40.5994 18.9253 40.7488 19.864 40.7488 20.952V31H36.7168V21.976C36.7168 20.8453 36.4394 19.96 35.8848 19.32C35.3514 18.6587 34.5728 18.328 33.5488 18.328C32.3541 18.328 31.4581 18.7333 30.8608 19.544C30.2848 20.3333 29.9968 21.4 29.9968 22.744V31ZM45.1105 15.128H49.8145V8.6H53.8465V15.128H59.5745V18.968H53.8465V26.2C53.8465 26.84 54.1345 27.16 54.7105 27.16H58.9985V31H52.2785C51.5532 31 50.9558 30.7653 50.4865 30.296C50.0385 29.8267 49.8145 29.2293 49.8145 28.504V18.968H45.1105V15.128ZM80.7043 23.256C80.7043 24.5787 80.4803 25.752 80.0323 26.776C79.5843 27.7787 78.9763 28.632 78.2083 29.336C77.4403 30.0187 76.5549 30.5413 75.5523 30.904C74.5709 31.2667 73.5363 31.448 72.4483 31.448C71.3603 31.448 70.3149 31.2667 69.3123 30.904C68.3309 30.5413 67.4563 30.0187 66.6883 29.336C65.9203 28.632 65.3123 27.7787 64.8643 26.776C64.4163 25.752 64.1923 24.5787 64.1923 23.256V22.872C64.1923 21.5707 64.4163 20.4187 64.8643 19.416C65.3123 18.392 65.9203 17.528 66.6883 16.824C67.4563 16.12 68.3309 15.5867 69.3123 15.224C70.3149 14.8613 71.3603 14.68 72.4483 14.68C73.5363 14.68 74.5709 14.8613 75.5523 15.224C76.5549 15.5867 77.4403 16.12 78.2083 16.824C78.9763 17.528 79.5843 18.392 80.0323 19.416C80.4803 20.4187 80.7043 21.5707 80.7043 22.872V23.256ZM72.4483 27.608C73.0243 27.608 73.5683 27.512 74.0803 27.32C74.5923 27.128 75.0403 26.8507 75.4243 26.488C75.8083 26.1253 76.1069 25.688 76.3203 25.176C76.5549 24.6427 76.6723 24.0453 76.6723 23.384V22.744C76.6723 22.0827 76.5549 21.496 76.3203 20.984C76.1069 20.4507 75.8083 20.0027 75.4243 19.64C75.0403 19.2773 74.5923 19 74.0803 18.808C73.5683 18.616 73.0243 18.52 72.4483 18.52C71.8723 18.52 71.3283 18.616 70.8163 18.808C70.3043 19 69.8563 19.2773 69.4723 19.64C69.0883 20.0027 68.7789 20.4507 68.5443 20.984C68.3309 21.496 68.2243 22.0827 68.2243 22.744V23.384C68.2243 24.0453 68.3309 24.6427 68.5443 25.176C68.7789 25.688 69.0883 26.1253 69.4723 26.488C69.8563 26.8507 70.3043 27.128 70.8163 27.32C71.3283 27.512 71.8723 27.608 72.4483 27.608ZM85.034 27.16H90.41V18.968H85.418V15.128H94.442V27.16H99.05V31H85.034V27.16ZM95.434 10.424C95.434 10.8507 95.3487 11.256 95.178 11.64C95.0287 12.0027 94.8153 12.3227 94.538 12.6C94.2607 12.856 93.93 13.0693 93.546 13.24C93.1833 13.3893 92.7993 13.464 92.394 13.464C91.9673 13.464 91.5727 13.3893 91.21 13.24C90.8473 13.0693 90.5273 12.856 90.25 12.6C89.9727 12.3227 89.7487 12.0027 89.578 11.64C89.4287 11.256 89.354 10.8507 89.354 10.424C89.354 9.99733 89.4287 9.60267 89.578 9.24C89.7487 8.856 89.9727 8.536 90.25 8.28C90.5273 8.00267 90.8473 7.78933 91.21 7.64C91.5727 7.46933 91.9673 7.384 92.394 7.384C92.7993 7.384 93.1833 7.46933 93.546 7.64C93.93 7.78933 94.2607 8.00267 94.538 8.28C94.8153 8.536 95.0287 8.856 95.178 9.24C95.3487 9.60267 95.434 9.99733 95.434 10.424ZM108.372 31H104.34V15.128H108.372V17.496H108.948C109.31 16.6 109.897 15.9067 110.708 15.416C111.518 14.9253 112.468 14.68 113.556 14.68C114.324 14.68 115.038 14.808 115.7 15.064C116.382 15.2987 116.98 15.672 117.492 16.184C118.004 16.696 118.398 17.3467 118.676 18.136C118.974 18.9253 119.124 19.864 119.124 20.952V31H115.092V21.976C115.092 20.8453 114.814 19.96 114.26 19.32C113.726 18.6587 112.948 18.328 111.924 18.328C110.729 18.328 109.833 18.7333 109.236 19.544C108.66 20.3333 108.372 21.4 108.372 22.744V31ZM127.486 24.376C127.507 24.8453 127.614 25.2827 127.806 25.688C128.019 26.072 128.296 26.4133 128.638 26.712C129 26.9893 129.406 27.2133 129.854 27.384C130.323 27.5333 130.814 27.608 131.326 27.608C132.328 27.608 133.096 27.4373 133.63 27.096C134.163 26.7333 134.547 26.3067 134.782 25.816L138.238 27.736C138.046 28.1413 137.779 28.568 137.438 29.016C137.096 29.4427 136.648 29.8373 136.094 30.2C135.56 30.5627 134.899 30.8613 134.11 31.096C133.342 31.3307 132.435 31.448 131.39 31.448C130.195 31.448 129.107 31.256 128.126 30.872C127.144 30.488 126.291 29.9333 125.566 29.208C124.862 28.4827 124.307 27.5973 123.902 26.552C123.518 25.5067 123.326 24.3227 123.326 23V22.808C123.326 21.592 123.528 20.4827 123.934 19.48C124.36 18.4773 124.936 17.624 125.661 16.92C126.387 16.216 127.23 15.672 128.19 15.288C129.171 14.8827 130.216 14.68 131.326 14.68C132.691 14.68 133.864 14.9253 134.846 15.416C135.827 15.8853 136.638 16.4933 137.278 17.24C137.918 17.9653 138.387 18.776 138.686 19.672C138.984 20.5467 139.134 21.4 139.134 22.232V24.376H127.486ZM131.294 18.328C130.27 18.328 129.438 18.5947 128.798 19.128C128.158 19.64 127.742 20.2373 127.55 20.92H135.038C134.91 20.1733 134.504 19.5547 133.822 19.064C133.16 18.5733 132.318 18.328 131.294 18.328ZM163.249 8.6H167.473V26.968H177.649V31H163.249V8.6ZM193.467 15.128H197.499V31H193.467V28.696H192.891C192.187 30.5307 190.672 31.448 188.347 31.448C187.557 31.448 186.821 31.32 186.139 31.064C185.456 30.808 184.859 30.4133 184.347 29.88C183.835 29.3467 183.429 28.6853 183.131 27.896C182.853 27.0853 182.715 26.136 182.715 25.048V15.128H186.747V24.216C186.747 25.3467 187.013 26.232 187.547 26.872C188.08 27.4907 188.88 27.8 189.947 27.8C191.163 27.8 192.048 27.416 192.603 26.648C193.179 25.8587 193.467 24.792 193.467 23.448V15.128ZM217.797 25.176C217.434 27.0533 216.57 28.568 215.205 29.72C213.861 30.872 212.058 31.448 209.797 31.448C208.623 31.448 207.525 31.2667 206.501 30.904C205.498 30.5413 204.623 30.0187 203.877 29.336C203.13 28.6533 202.543 27.8107 202.117 26.808C201.69 25.8053 201.477 24.664 201.477 23.384V23C201.477 21.72 201.69 20.568 202.117 19.544C202.543 18.52 203.13 17.6453 203.877 16.92C204.645 16.1947 205.53 15.64 206.533 15.256C207.557 14.872 208.645 14.68 209.797 14.68C212.015 14.68 213.807 15.256 215.173 16.408C216.559 17.56 217.434 19.0747 217.797 20.952L213.829 21.976C213.701 21.0373 213.295 20.2267 212.613 19.544C211.93 18.8613 210.97 18.52 209.733 18.52C209.157 18.52 208.613 18.6267 208.101 18.84C207.589 19.0533 207.141 19.3627 206.757 19.768C206.373 20.152 206.063 20.632 205.829 21.208C205.615 21.7627 205.509 22.392 205.509 23.096V23.288C205.509 23.992 205.615 24.6213 205.829 25.176C206.063 25.7093 206.373 26.1573 206.757 26.52C207.141 26.8827 207.589 27.16 208.101 27.352C208.613 27.5227 209.157 27.608 209.733 27.608C210.97 27.608 211.909 27.2987 212.549 26.68C213.21 26.0613 213.637 25.2293 213.829 24.184L217.797 25.176ZM222.19 27.16H227.566V18.968H222.574V15.128H231.598V27.16H236.206V31H222.19V27.16ZM232.59 10.424C232.59 10.8507 232.505 11.256 232.334 11.64C232.185 12.0027 231.972 12.3227 231.694 12.6C231.417 12.856 231.086 13.0693 230.702 13.24C230.34 13.3893 229.956 13.464 229.55 13.464C229.124 13.464 228.729 13.3893 228.366 13.24C228.004 13.0693 227.684 12.856 227.406 12.6C227.129 12.3227 226.905 12.0027 226.734 11.64C226.585 11.256 226.51 10.8507 226.51 10.424C226.51 9.99733 226.585 9.60267 226.734 9.24C226.905 8.856 227.129 8.536 227.406 8.28C227.684 8.00267 228.004 7.78933 228.366 7.64C228.729 7.46933 229.124 7.384 229.55 7.384C229.956 7.384 230.34 7.46933 230.702 7.64C231.086 7.78933 231.417 8.00267 231.694 8.28C231.972 8.536 232.185 8.856 232.334 9.24C232.505 9.60267 232.59 9.99733 232.59 10.424ZM251.768 28.696C251.341 29.6987 250.744 30.4133 249.976 30.84C249.208 31.2453 248.312 31.448 247.288 31.448C246.328 31.448 245.421 31.2667 244.568 30.904C243.736 30.5413 243 30.008 242.36 29.304C241.72 28.6 241.208 27.7467 240.824 26.744C240.461 25.7413 240.28 24.6 240.28 23.32V22.808C240.28 21.5493 240.461 20.4187 240.824 19.416C241.187 18.4133 241.677 17.56 242.296 16.856C242.915 16.152 243.629 15.6187 244.44 15.256C245.272 14.872 246.157 14.68 247.096 14.68C248.227 14.68 249.133 14.872 249.816 15.256C250.52 15.64 251.075 16.2373 251.48 17.048H252.056V15.128H256.088V26.2C256.088 26.84 256.376 27.16 256.952 27.16H257.56V31H254.808C254.083 31 253.485 30.7867 253.016 30.36C252.568 29.9333 252.344 29.3787 252.344 28.696H251.768ZM248.184 27.608C249.357 27.608 250.296 27.224 251 26.456C251.704 25.6667 252.056 24.6 252.056 23.256V22.872C252.056 21.528 251.704 20.472 251 19.704C250.296 18.9147 249.357 18.52 248.184 18.52C247.011 18.52 246.072 18.9147 245.368 19.704C244.664 20.472 244.312 21.528 244.312 22.872V23.256C244.312 24.6 244.664 25.6667 245.368 26.456C246.072 27.224 247.011 27.608 248.184 27.608ZM265.122 31H261.09V15.128H265.122V17.496H265.698C266.06 16.6 266.647 15.9067 267.458 15.416C268.268 14.9253 269.218 14.68 270.306 14.68C271.074 14.68 271.788 14.808 272.45 15.064C273.132 15.2987 273.73 15.672 274.242 16.184C274.754 16.696 275.148 17.3467 275.426 18.136C275.724 18.9253 275.874 19.864 275.874 20.952V31H271.842V21.976C271.842 20.8453 271.564 19.96 271.01 19.32C270.476 18.6587 269.698 18.328 268.674 18.328C267.479 18.328 266.583 18.7333 265.986 19.544C265.41 20.3333 265.122 21.4 265.122 22.744V31ZM280.972 27.16H286.348V18.968H281.356V15.128H290.38V27.16H294.988V31H280.972V27.16ZM291.372 10.424C291.372 10.8507 291.286 11.256 291.116 11.64C290.966 12.0027 290.753 12.3227 290.476 12.6C290.198 12.856 289.868 13.0693 289.484 13.24C289.121 13.3893 288.737 13.464 288.332 13.464C287.905 13.464 287.51 13.3893 287.148 13.24C286.785 13.0693 286.465 12.856 286.188 12.6C285.91 12.3227 285.686 12.0027 285.516 11.64C285.366 11.256 285.292 10.8507 285.292 10.424C285.292 9.99733 285.366 9.60267 285.516 9.24C285.686 8.856 285.91 8.536 286.188 8.28C286.465 8.00267 286.785 7.78933 287.148 7.64C287.51 7.46933 287.905 7.384 288.332 7.384C288.737 7.384 289.121 7.46933 289.484 7.64C289.868 7.78933 290.198 8.00267 290.476 8.28C290.753 8.536 290.966 8.856 291.116 9.24C291.286 9.60267 291.372 9.99733 291.372 10.424ZM335.615 31.96V35.992H334.271C332.692 35.992 331.188 35.7573 329.759 35.288C328.351 34.84 327.114 34.1253 326.047 33.144C324.98 32.184 324.127 30.9467 323.487 29.432C322.868 27.9173 322.559 26.1147 322.559 24.024V15.576C322.559 13.4853 322.868 11.6827 323.487 10.168C324.127 8.65333 324.98 7.416 326.047 6.456C327.114 5.47467 328.351 4.76 329.759 4.312C331.188 3.84266 332.692 3.608 334.271 3.608H335.615V7.64H334.463C333.354 7.64 332.33 7.78933 331.391 8.088C330.452 8.38667 329.631 8.86667 328.927 9.528C328.244 10.1893 327.7 11.0427 327.295 12.088C326.911 13.112 326.719 14.36 326.719 15.832V23.768C326.719 25.24 326.911 26.4987 327.295 27.544C327.7 28.568 328.244 29.4107 328.927 30.072C329.631 30.7333 330.452 31.2133 331.391 31.512C332.33 31.8107 333.354 31.96 334.463 31.96H335.615ZM350.569 26.2H342.953L341.865 31H337.449L342.793 8.6H350.729L356.073 31H351.657L350.569 26.2ZM343.849 22.168H349.641L347.049 10.712H346.473L343.849 22.168ZM363.091 31H359.059V15.128H363.091V17.496H363.667C364.029 16.6 364.616 15.9067 365.427 15.416C366.237 14.9253 367.187 14.68 368.275 14.68C369.043 14.68 369.757 14.808 370.419 15.064C371.101 15.2987 371.699 15.672 372.211 16.184C372.723 16.696 373.117 17.3467 373.395 18.136C373.693 18.9253 373.843 19.864 373.843 20.952V31H369.811V21.976C369.811 20.8453 369.533 19.96 368.979 19.32C368.445 18.6587 367.667 18.328 366.643 18.328C365.448 18.328 364.552 18.7333 363.955 19.544C363.379 20.3333 363.091 21.4 363.091 22.744V31ZM378.204 15.128H382.908V8.6H386.94V15.128H392.668V18.968H386.94V26.2C386.94 26.84 387.228 27.16 387.804 27.16H392.092V31H385.372C384.647 31 384.05 30.7653 383.58 30.296C383.132 29.8267 382.908 29.2293 382.908 28.504V18.968H378.204V15.128ZM398.15 27.16H403.718V12.44H398.342V8.6H407.75V27.16H412.934V31H398.15V27.16ZM428.592 15.128H432.624V31H428.592V28.696H428.016C427.312 30.5307 425.797 31.448 423.472 31.448C422.682 31.448 421.946 31.32 421.264 31.064C420.581 30.808 419.984 30.4133 419.472 29.88C418.96 29.3467 418.554 28.6853 418.256 27.896C417.978 27.0853 417.84 26.136 417.84 25.048V15.128H421.872V24.216C421.872 25.3467 422.138 26.232 422.672 26.872C423.205 27.4907 424.005 27.8 425.072 27.8C426.288 27.8 427.173 27.416 427.728 26.648C428.304 25.8587 428.592 24.792 428.592 23.448V15.128ZM447.962 15.128H452.41L448.57 22.584V23.16L452.634 31H447.994L445.018 24.792H444.442L441.466 31H436.826L440.89 23.16V22.584L437.018 15.128H441.498L444.442 20.952H445.018L447.962 15.128ZM457.027 31.96C458.137 31.96 459.161 31.8107 460.099 31.512C461.038 31.2133 461.849 30.7333 462.531 30.072C463.235 29.4107 463.779 28.568 464.163 27.544C464.569 26.4987 464.771 25.24 464.771 23.768V15.832C464.771 14.36 464.569 13.112 464.163 12.088C463.779 11.0427 463.235 10.1893 462.531 9.528C461.849 8.86667 461.038 8.38667 460.099 8.088C459.161 7.78933 458.137 7.64 457.027 7.64H455.875V3.608H457.219C458.798 3.608 460.291 3.84266 461.699 4.312C463.129 4.76 464.377 5.47467 465.443 6.456C466.51 7.416 467.353 8.65333 467.971 10.168C468.611 11.6827 468.931 13.4853 468.931 15.576V24.024C468.931 26.1147 468.611 27.9173 467.971 29.432C467.353 30.9467 466.51 32.184 465.443 33.144C464.377 34.1253 463.129 34.84 461.699 35.288C460.291 35.7573 458.798 35.992 457.219 35.992H455.875V31.96H457.027Z" fill="#F5F5F5"/>
<path d="M17.475 26.2L20.4008 25.5368L19.8711 23.2H17.475V26.2ZM9.859 26.2V23.2H7.4629L6.93322 25.5368L9.859 26.2ZM8.771 31V34H11.1671L11.6968 31.6632L8.771 31ZM4.355 31L1.43689 30.3038L0.555093 34H4.355V31ZM9.699 8.6V5.6H7.33052L6.7809 7.90382L9.699 8.6ZM17.635 8.6L20.5531 7.90382L20.0035 5.6H17.635V8.6ZM22.979 31V34H26.7789L25.8971 30.3038L22.979 31ZM18.563 31L15.6372 31.6632L16.1669 34H18.563V31ZM10.755 22.168L7.83073 21.4982L6.99016 25.168H10.755V22.168ZM16.547 22.168V25.168H20.3016L19.473 21.506L16.547 22.168ZM13.955 10.712L16.881 10.05L16.3521 7.712H13.955V10.712ZM13.379 10.712V7.712H10.9885L10.4547 10.0422L13.379 10.712ZM17.475 23.2H9.859V29.2H17.475V23.2ZM6.93322 25.5368L5.84522 30.3368L11.6968 31.6632L12.7848 26.8632L6.93322 25.5368ZM8.771 28H4.355V34H8.771V28ZM7.27311 31.6962L12.6171 9.29618L6.7809 7.90382L1.43689 30.3038L7.27311 31.6962ZM9.699 11.6H17.635V5.6H9.699V11.6ZM14.7169 9.29618L20.0609 31.6962L25.8971 30.3038L20.5531 7.90382L14.7169 9.29618ZM22.979 28H18.563V34H22.979V28ZM21.4888 30.3368L20.4008 25.5368L14.5492 26.8632L15.6372 31.6632L21.4888 30.3368ZM10.755 25.168H16.547V19.168H10.755V25.168ZM19.473 21.506L16.881 10.05L11.029 11.374L13.621 22.83L19.473 21.506ZM13.955 7.712H13.379V13.712H13.955V7.712ZM10.4547 10.0422L7.83073 21.4982L13.6793 22.8378L16.3033 11.3818L10.4547 10.0422ZM29.9967 31V34H32.9967V31H29.9967ZM25.9647 31H22.9647V34H25.9647V31ZM25.9647 15.128V12.128H22.9647V15.128H25.9647ZM29.9967 15.128H32.9967V12.128H29.9967V15.128ZM29.9967 17.496H26.9967V20.496H29.9967V17.496ZM30.5728 17.496V20.496H32.5949L33.3536 18.6216L30.5728 17.496ZM32.3327 15.416L33.8862 17.9825V17.9825L32.3327 15.416ZM37.3248 15.064L36.2418 17.8617L36.2953 17.8824L36.3495 17.9011L37.3248 15.064ZM39.1168 16.184L41.2381 14.0627L39.1168 16.184ZM40.3008 18.136L37.4704 19.1305L37.4822 19.1642L37.4949 19.1977L40.3008 18.136ZM40.7487 31V34H43.7487V31H40.7487ZM36.7168 31H33.7168V34H36.7168V31ZM35.8848 19.32L33.5495 21.2033L33.5829 21.2446L33.6177 21.2848L35.8848 19.32ZM30.8607 19.544L28.4456 17.7644L28.4374 17.7756L30.8607 19.544ZM29.9967 28H25.9647V34H29.9967V28ZM28.9647 31V15.128H22.9647V31H28.9647ZM25.9647 18.128H29.9967V12.128H25.9647V18.128ZM26.9967 15.128V17.496H32.9967V15.128H26.9967ZM29.9967 20.496H30.5728V14.496H29.9967V20.496ZM33.3536 18.6216C33.4786 18.3128 33.6413 18.1307 33.8862 17.9825L30.7793 12.8495C29.4029 13.6826 28.3923 14.8872 27.7919 16.3704L33.3536 18.6216ZM33.8862 17.9825C34.1623 17.8154 34.5577 17.68 35.1808 17.68V11.68C33.6278 11.68 32.1245 12.0353 30.7793 12.8495L33.8862 17.9825ZM35.1808 17.68C35.6092 17.68 35.9535 17.7501 36.2418 17.8617L38.4077 12.2663C37.3733 11.8659 36.2883 11.68 35.1808 11.68V17.68ZM36.3495 17.9011C36.5993 17.9869 36.805 18.1149 36.9954 18.3053L41.2381 14.0627C40.4045 13.2291 39.4155 12.6104 38.3 12.2269L36.3495 17.9011ZM36.9954 18.3053C37.1438 18.4537 37.3189 18.6993 37.4704 19.1305L43.1311 17.1415C42.7279 15.994 42.1137 14.9383 41.2381 14.0627L36.9954 18.3053ZM37.4949 19.1977C37.6341 19.5655 37.7487 20.1269 37.7487 20.952H43.7487C43.7487 19.6011 43.5648 18.2852 43.1066 17.0743L37.4949 19.1977ZM37.7487 20.952V31H43.7487V20.952H37.7487ZM40.7487 28H36.7168V34H40.7487V28ZM39.7168 31V21.976H33.7168V31H39.7168ZM39.7168 21.976C39.7168 20.3681 39.3179 18.7007 38.1518 17.3552L33.6177 21.2848C33.6004 21.2649 33.6186 21.2734 33.6459 21.3608C33.6763 21.4579 33.7168 21.6508 33.7168 21.976H39.7168ZM38.22 17.4367C36.9991 15.9229 35.2736 15.328 33.5488 15.328V21.328C33.7407 21.328 33.779 21.3589 33.7281 21.3373C33.7028 21.3266 33.6673 21.3076 33.6294 21.279C33.5916 21.2504 33.5649 21.2223 33.5495 21.2033L38.22 17.4367ZM33.5488 15.328C31.602 15.328 29.7179 16.0377 28.4456 17.7644L33.2759 21.3236C33.2822 21.3151 33.2771 21.3236 33.259 21.3383C33.2407 21.3533 33.2241 21.3622 33.2173 21.3653C33.2025 21.372 33.2881 21.328 33.5488 21.328V15.328ZM28.4374 17.7756C27.3691 19.2395 26.9967 20.998 26.9967 22.744H32.9967C32.9967 21.802 33.2004 21.4271 33.2841 21.3124L28.4374 17.7756ZM26.9967 22.744V31H32.9967V22.744H26.9967ZM45.1105 15.128V12.128H42.1105V15.128H45.1105ZM49.8145 15.128V18.128H52.8145V15.128H49.8145ZM49.8145 8.6V5.6H46.8145V8.6H49.8145ZM53.8465 8.6H56.8465V5.6H53.8465V8.6ZM53.8465 15.128H50.8465V18.128H53.8465V15.128ZM59.5745 15.128H62.5745V12.128H59.5745V15.128ZM59.5745 18.968V21.968H62.5745V18.968H59.5745ZM53.8465 18.968V15.968H50.8465V18.968H53.8465ZM58.9985 27.16H61.9985V24.16H58.9985V27.16ZM58.9985 31V34H61.9985V31H58.9985ZM50.4865 30.296L48.3164 32.3674L48.3405 32.3927L48.3652 32.4173L50.4865 30.296ZM49.8145 18.968H52.8145V15.968H49.8145V18.968ZM45.1105 18.968H42.1105V21.968H45.1105V18.968ZM45.1105 18.128H49.8145V12.128H45.1105V18.128ZM52.8145 15.128V8.6H46.8145V15.128H52.8145ZM49.8145 11.6H53.8465V5.6H49.8145V11.6ZM50.8465 8.6V15.128H56.8465V8.6H50.8465ZM53.8465 18.128H59.5745V12.128H53.8465V18.128ZM56.5745 15.128V18.968H62.5745V15.128H56.5745ZM59.5745 15.968H53.8465V21.968H59.5745V15.968ZM50.8465 18.968V26.2H56.8465V18.968H50.8465ZM50.8465 26.2C50.8465 26.909 50.9992 28.0009 51.8326 28.9269C52.7201 29.913 53.8736 30.16 54.7105 30.16V24.16C54.9714 24.16 55.6929 24.247 56.2924 24.9131C56.8378 25.5191 56.8465 26.131 56.8465 26.2H50.8465ZM54.7105 30.16H58.9985V24.16H54.7105V30.16ZM55.9985 27.16V31H61.9985V27.16H55.9985ZM58.9985 28H52.2785V34H58.9985V28ZM52.2785 28C52.2427 28 52.2902 27.9951 52.3835 28.0317C52.482 28.0704 52.561 28.1279 52.6078 28.1747L48.3652 32.4173C49.4521 33.5042 50.8388 34 52.2785 34V28ZM52.6566 28.2246C52.7071 28.2776 52.7589 28.3557 52.7915 28.4426C52.8219 28.5236 52.8145 28.5557 52.8145 28.504H46.8145C46.8145 29.9021 47.2712 31.2724 48.3164 32.3674L52.6566 28.2246ZM52.8145 28.504V18.968H46.8145V28.504H52.8145ZM49.8145 15.968H45.1105V21.968H49.8145V15.968ZM48.1105 18.968V15.128H42.1105V18.968H48.1105ZM80.0322 26.776L82.7713 27.9998L82.776 27.9892L82.7807 27.9785L80.0322 26.776ZM78.2083 29.336L80.2013 31.5782L80.2185 31.563L80.2354 31.5475L78.2083 29.336ZM75.5523 30.904L74.5318 28.0829L74.5221 28.0864L74.5123 28.09L75.5523 30.904ZM69.3122 30.904L68.2723 33.718L68.2821 33.7216L68.2918 33.7251L69.3122 30.904ZM66.6882 29.336L64.6611 31.5475L64.678 31.563L64.6952 31.5782L66.6882 29.336ZM64.8643 26.776L62.1158 27.9785L62.1205 27.9892L62.1252 27.9998L64.8643 26.776ZM64.8643 19.416L67.6033 20.6398L67.608 20.6292L67.6127 20.6185L64.8643 19.416ZM69.3122 15.224L68.2918 12.4029L68.2821 12.4064L68.2723 12.41L69.3122 15.224ZM75.5523 15.224L74.5123 18.038L74.5221 18.0416L74.5318 18.0451L75.5523 15.224ZM78.2083 16.824L80.2354 14.6125V14.6125L78.2083 16.824ZM80.0322 19.416L77.2838 20.6185L77.2885 20.6292L77.2932 20.6398L80.0322 19.416ZM74.0803 27.32L75.1336 30.129L74.0803 27.32ZM75.4242 26.488L77.4841 28.669L75.4242 26.488ZM76.3203 25.176L73.5743 23.9678L73.5624 23.9949L73.551 24.0222L76.3203 25.176ZM76.3203 20.984L73.5348 22.0982L73.5623 22.1668L73.5931 22.234L76.3203 20.984ZM74.0803 18.808L75.1336 15.999L74.0803 18.808ZM70.8163 18.808L71.8696 21.617L70.8163 18.808ZM69.4723 19.64L71.5321 21.821L69.4723 19.64ZM68.5443 20.984L65.7983 19.7758L65.7864 19.8029L65.775 19.8302L68.5443 20.984ZM68.5443 25.176L65.7588 26.2902L65.7863 26.3588L65.8171 26.426L68.5443 25.176ZM69.4723 26.488L71.5321 24.307L69.4723 26.488ZM70.8163 27.32L71.8696 24.511L70.8163 27.32ZM77.7043 23.256C77.7043 24.2396 77.5383 24.9917 77.2838 25.5735L82.7807 27.9785C83.4222 26.5123 83.7043 24.9177 83.7043 23.256H77.7043ZM77.2932 25.5522C77.0033 26.2011 76.6306 26.7125 76.1811 27.1245L80.2354 31.5475C81.3219 30.5515 82.1652 29.3563 82.7713 27.9998L77.2932 25.5522ZM76.2152 27.0938C75.7424 27.514 75.1902 27.8447 74.5318 28.0829L76.5727 33.7251C77.9196 33.2379 79.1381 32.5233 80.2013 31.5782L76.2152 27.0938ZM74.5123 28.09C73.8771 28.3248 73.1957 28.448 72.4482 28.448V34.448C73.8768 34.448 75.2647 34.2086 76.5922 33.718L74.5123 28.09ZM72.4482 28.448C71.701 28.448 71.0014 28.3248 70.3327 28.0829L68.2918 33.7251C69.6284 34.2086 71.0195 34.448 72.4482 34.448V28.448ZM70.3522 28.09C69.7149 27.8545 69.1649 27.5236 68.6813 27.0938L64.6952 31.5782C65.7476 32.5138 66.9469 33.2282 68.2723 33.718L70.3522 28.09ZM68.7154 27.1245C68.2659 26.7125 67.8932 26.2011 67.6033 25.5522L62.1252 27.9998C62.7313 29.3563 63.5746 30.5515 64.6611 31.5475L68.7154 27.1245ZM67.6127 25.5735C67.3582 24.9917 67.1923 24.2396 67.1923 23.256H61.1923C61.1923 24.9177 61.4743 26.5123 62.1158 27.9785L67.6127 25.5735ZM67.1923 23.256V22.872H61.1923V23.256H67.1923ZM67.1923 22.872C67.1923 21.9155 67.3562 21.1929 67.6033 20.6398L62.1252 18.1922C61.4763 19.6445 61.1923 21.2259 61.1923 22.872H67.1923ZM67.6127 20.6185C67.9056 19.9491 68.2775 19.4369 68.7154 19.0355L64.6611 14.6125C63.563 15.6191 62.7189 16.8349 62.1158 18.2135L67.6127 20.6185ZM68.7154 19.0355C69.1953 18.5956 69.7343 18.2663 70.3522 18.038L68.2723 12.41C66.9275 12.907 65.7172 13.6444 64.6611 14.6125L68.7154 19.0355ZM70.3327 18.0451C71.0014 17.8032 71.701 17.68 72.4482 17.68V11.68C71.0195 11.68 69.6284 11.9194 68.2918 12.4029L70.3327 18.0451ZM72.4482 17.68C73.1957 17.68 73.8771 17.8032 74.5123 18.038L76.5922 12.41C75.2647 11.9194 73.8768 11.68 72.4482 11.68V17.68ZM74.5318 18.0451C75.1709 18.2763 75.712 18.6055 76.1811 19.0355L80.2354 14.6125C79.1685 13.6345 77.9389 12.8971 76.5727 12.4029L74.5318 18.0451ZM76.1811 19.0355C76.619 19.4369 76.9909 19.9491 77.2838 20.6185L82.7807 18.2135C82.1776 16.8349 81.3335 15.6191 80.2354 14.6125L76.1811 19.0355ZM77.2932 20.6398C77.5403 21.1929 77.7043 21.9155 77.7043 22.872H83.7043C83.7043 21.2259 83.4202 19.6445 82.7713 18.1922L77.2932 20.6398ZM77.7043 22.872V23.256H83.7043V22.872H77.7043ZM72.4482 30.608C73.3646 30.608 74.2671 30.4539 75.1336 30.129L73.0269 24.511C72.8694 24.5701 72.6839 24.608 72.4482 24.608V30.608ZM75.1336 30.129C76.0061 29.8018 76.7995 29.3156 77.4841 28.669L73.3644 24.307C73.281 24.3857 73.1784 24.4542 73.0269 24.511L75.1336 30.129ZM77.4841 28.669C78.1893 28.0031 78.7226 27.2103 79.0895 26.3298L73.551 24.0222C73.4912 24.1657 73.4272 24.2476 73.3644 24.307L77.4841 28.669ZM79.0662 26.3842C79.4896 25.4219 79.6722 24.4053 79.6722 23.384H73.6722C73.6722 23.6854 73.6202 23.8634 73.5743 23.9678L79.0662 26.3842ZM79.6722 23.384V22.744H73.6722V23.384H79.6722ZM79.6722 22.744C79.6722 21.7257 79.4905 20.7007 79.0474 19.734L73.5931 22.234C73.6193 22.2913 73.6722 22.4396 73.6722 22.744H79.6722ZM79.1057 19.8698C78.7451 18.9683 78.2114 18.1458 77.4841 17.459L73.3644 21.821C73.4051 21.8595 73.4688 21.933 73.5348 22.0982L79.1057 19.8698ZM77.4841 17.459C76.7995 16.8124 76.0061 16.3262 75.1336 15.999L73.0269 21.617C73.1784 21.6738 73.281 21.7423 73.3644 21.821L77.4841 17.459ZM75.1336 15.999C74.2671 15.6741 73.3646 15.52 72.4482 15.52V21.52C72.6839 21.52 72.8694 21.5579 73.0269 21.617L75.1336 15.999ZM72.4482 15.52C71.5319 15.52 70.6294 15.6741 69.7629 15.999L71.8696 21.617C72.0271 21.5579 72.2126 21.52 72.4482 21.52V15.52ZM69.7629 15.999C68.8904 16.3262 68.097 16.8124 67.4124 17.459L71.5321 21.821C71.6155 21.7423 71.7181 21.6738 71.8696 21.617L69.7629 15.999ZM67.4124 17.459C66.7083 18.124 66.1777 18.9136 65.7983 19.7758L71.2902 22.1922C71.3802 21.9877 71.4682 21.8814 71.5321 21.821L67.4124 17.459ZM65.775 19.8302C65.383 20.7709 65.2243 21.7613 65.2243 22.744H71.2243C71.2243 22.4041 71.2788 22.2211 71.3135 22.1378L65.775 19.8302ZM65.2243 22.744V23.384H71.2243V22.744H65.2243ZM65.2243 23.384C65.2243 24.3699 65.384 25.3531 65.7588 26.2902L71.3297 24.0618C71.2779 23.9323 71.2243 23.7208 71.2243 23.384H65.2243ZM65.8171 26.426C66.2015 27.2648 66.73 28.0246 67.4124 28.669L71.5321 24.307C71.4465 24.2261 71.3563 24.1112 71.2714 23.926L65.8171 26.426ZM67.4124 28.669C68.097 29.3156 68.8904 29.8018 69.7629 30.129L71.8696 24.511C71.7181 24.4542 71.6155 24.3857 71.5321 24.307L67.4124 28.669ZM69.7629 30.129C70.6294 30.4539 71.5319 30.608 72.4482 30.608V24.608C72.2126 24.608 72.0271 24.5701 71.8696 24.511L69.7629 30.129ZM85.034 27.16V24.16H82.034V27.16H85.034ZM90.41 27.16V30.16H93.41V27.16H90.41ZM90.41 18.968H93.41V15.968H90.41V18.968ZM85.418 18.968H82.418V21.968H85.418V18.968ZM85.418 15.128V12.128H82.418V15.128H85.418ZM94.442 15.128H97.442V12.128H94.442V15.128ZM94.442 27.16H91.442V30.16H94.442V27.16ZM99.05 27.16H102.05V24.16H99.05V27.16ZM99.05 31V34H102.05V31H99.05ZM85.034 31H82.034V34H85.034V31ZM95.178 11.64L92.4366 10.4216L92.4197 10.4594L92.404 10.4978L95.178 11.64ZM94.538 12.6L96.5728 14.8044L96.6169 14.7637L96.6593 14.7213L94.538 12.6ZM93.546 13.24L94.6882 16.014L94.7266 15.9983L94.7644 15.9814L93.546 13.24ZM91.21 13.24L89.9326 15.9545L89.9995 15.9859L90.0678 16.014L91.21 13.24ZM90.25 12.6L88.1287 14.7213L88.1711 14.7637L88.2152 14.8044L90.25 12.6ZM89.578 11.64L86.782 12.7273L86.8195 12.8238L86.8635 12.9174L89.578 11.64ZM89.578 9.24L86.8366 8.02158L86.8197 8.05944L86.804 8.09775L89.578 9.24ZM90.25 8.28L92.2848 10.4844L92.3289 10.4437L92.3713 10.4013L90.25 8.28ZM91.21 7.64L92.3522 10.414L92.4206 10.3859L92.4874 10.3545L91.21 7.64ZM93.546 7.64L92.2686 10.3545L92.3622 10.3985L92.4587 10.436L93.546 7.64ZM94.538 8.28L92.4167 10.4013L92.4591 10.4437L92.5032 10.4844L94.538 8.28ZM95.178 9.24L92.382 10.3273L92.4195 10.4238L92.4635 10.5174L95.178 9.24ZM85.034 30.16H90.41V24.16H85.034V30.16ZM93.41 27.16V18.968H87.41V27.16H93.41ZM90.41 15.968H85.418V21.968H90.41V15.968ZM88.418 18.968V15.128H82.418V18.968H88.418ZM85.418 18.128H94.442V12.128H85.418V18.128ZM91.442 15.128V27.16H97.442V15.128H91.442ZM94.442 30.16H99.05V24.16H94.442V30.16ZM96.05 27.16V31H102.05V27.16H96.05ZM99.05 28H85.034V34H99.05V28ZM88.034 31V27.16H82.034V31H88.034ZM92.434 10.424C92.434 10.4305 92.4337 10.4336 92.4337 10.4339C92.4336 10.4342 92.4338 10.4327 92.4343 10.43C92.4349 10.4273 92.4356 10.4246 92.4363 10.4225C92.437 10.4204 92.4373 10.42 92.4366 10.4216L97.9194 12.8584C98.2633 12.0848 98.434 11.2638 98.434 10.424H92.434ZM92.404 10.4978C92.4033 10.4994 92.4035 10.4988 92.4047 10.4965C92.4059 10.4943 92.4076 10.4913 92.4099 10.4879C92.4121 10.4845 92.4142 10.4818 92.4158 10.4798C92.4174 10.4778 92.4179 10.4774 92.4167 10.4787L96.6593 14.7213C97.2167 14.1639 97.6519 13.5112 97.952 12.7822L92.404 10.4978ZM92.5032 10.3956C92.4925 10.4055 92.4456 10.4461 92.3276 10.4986L94.7644 15.9814C95.4144 15.6926 96.0289 15.3065 96.5728 14.8044L92.5032 10.3956ZM92.4038 10.466C92.4042 10.4658 92.4057 10.4652 92.408 10.4645C92.4102 10.4638 92.4121 10.4634 92.4134 10.4632C92.4146 10.4629 92.4141 10.4631 92.4115 10.4633C92.4088 10.4636 92.4031 10.464 92.394 10.464V16.464C93.1778 16.464 93.9511 16.3176 94.6882 16.014L92.4038 10.466ZM92.394 10.464C92.3562 10.464 92.3382 10.4608 92.3357 10.4603C92.3338 10.4599 92.3406 10.4612 92.3522 10.466L90.0678 16.014C90.8235 16.3252 91.6101 16.464 92.394 16.464V10.464ZM92.4874 10.5255C92.3846 10.4771 92.3236 10.4314 92.2848 10.3956L88.2152 14.8044C88.731 15.2806 89.3101 15.6615 89.9326 15.9545L92.4874 10.5255ZM92.3713 10.4787C92.3444 10.4517 92.3189 10.4188 92.2925 10.3626L86.8635 12.9174C87.1784 13.5865 87.601 14.1936 88.1287 14.7213L92.3713 10.4787ZM92.374 10.5527C92.3643 10.5276 92.354 10.4922 92.354 10.424H86.354C86.354 11.2092 86.493 11.9843 86.782 12.7273L92.374 10.5527ZM92.354 10.424C92.354 10.3862 92.3572 10.3682 92.3577 10.3657C92.3581 10.3638 92.3568 10.3706 92.352 10.3823L86.804 8.09775C86.4928 8.85348 86.354 9.64014 86.354 10.424H92.354ZM92.3194 10.4584C92.3324 10.4293 92.3382 10.4232 92.3317 10.4324C92.3248 10.4423 92.3095 10.4617 92.2848 10.4844L88.2152 6.07559C87.6053 6.63857 87.1543 7.30668 86.8366 8.02158L92.3194 10.4584ZM92.3713 10.4013C92.3726 10.4001 92.3722 10.4006 92.3702 10.4022C92.3682 10.4038 92.3655 10.4059 92.3621 10.4081C92.3587 10.4104 92.3557 10.4121 92.3535 10.4133C92.3512 10.4145 92.3506 10.4147 92.3522 10.414L90.0678 4.86596C89.3388 5.1661 88.6861 5.60128 88.1287 6.15868L92.3713 10.4013ZM92.4874 10.3545C92.4617 10.3666 92.435 10.3753 92.412 10.3802C92.3896 10.3851 92.3818 10.384 92.394 10.384V4.384C91.5548 4.384 90.7204 4.55484 89.9326 4.92554L92.4874 10.3545ZM92.394 10.384C92.3844 10.384 92.3633 10.3828 92.3352 10.3766C92.307 10.3703 92.2838 10.3616 92.2686 10.3545L94.8234 4.92554C94.0565 4.56465 93.2358 4.384 92.394 4.384V10.384ZM92.4587 10.436C92.471 10.4408 92.468 10.4409 92.4556 10.4329C92.4429 10.4247 92.4289 10.4135 92.4167 10.4013L96.6593 6.15868C96.0731 5.57241 95.3851 5.13633 94.6333 4.84398L92.4587 10.436ZM92.5032 10.4844C92.4639 10.4482 92.4325 10.4101 92.4099 10.3761C92.3877 10.3429 92.3805 10.3236 92.382 10.3273L97.974 8.15266C97.6746 7.38286 97.2155 6.66879 96.5728 6.07559L92.5032 10.4844ZM92.4635 10.5174C92.4514 10.4917 92.4427 10.465 92.4378 10.442C92.4329 10.4196 92.434 10.4118 92.434 10.424H98.434C98.434 9.58478 98.2632 8.75035 97.8925 7.9626L92.4635 10.5174ZM108.372 31V34H111.372V31H108.372ZM104.34 31H101.34V34H104.34V31ZM104.34 15.128V12.128H101.34V15.128H104.34ZM108.372 15.128H111.372V12.128H108.372V15.128ZM108.372 17.496H105.372V20.496H108.372V17.496ZM108.948 17.496V20.496H110.97L111.729 18.6216L108.948 17.496ZM110.708 15.416L112.261 17.9825V17.9825L110.708 15.416ZM115.7 15.064L114.617 17.8617L114.67 17.8824L114.725 17.9011L115.7 15.064ZM117.492 16.184L119.613 14.0627L117.492 16.184ZM118.676 18.136L115.845 19.1305L115.857 19.1642L115.87 19.1977L118.676 18.136ZM119.124 31V34H122.124V31H119.124ZM115.092 31H112.092V34H115.092V31ZM114.26 19.32L111.925 21.2033L111.958 21.2446L111.993 21.2848L114.26 19.32ZM109.236 19.544L106.821 17.7644L106.812 17.7756L109.236 19.544ZM108.372 28H104.34V34H108.372V28ZM107.34 31V15.128H101.34V31H107.34ZM104.34 18.128H108.372V12.128H104.34V18.128ZM105.372 15.128V17.496H111.372V15.128H105.372ZM108.372 20.496H108.948V14.496H108.372V20.496ZM111.729 18.6216C111.854 18.3128 112.016 18.1307 112.261 17.9825L109.154 12.8495C107.778 13.6826 106.767 14.8872 106.167 16.3704L111.729 18.6216ZM112.261 17.9825C112.537 17.8154 112.933 17.68 113.556 17.68V11.68C112.003 11.68 110.5 12.0353 109.154 12.8495L112.261 17.9825ZM113.556 17.68C113.984 17.68 114.329 17.7501 114.617 17.8617L116.783 12.2663C115.748 11.8659 114.663 11.68 113.556 11.68V17.68ZM114.725 17.9011C114.974 17.9869 115.18 18.1149 115.37 18.3053L119.613 14.0627C118.779 13.2291 117.791 12.6104 116.675 12.2269L114.725 17.9011ZM115.37 18.3053C115.519 18.4537 115.694 18.6993 115.845 19.1305L121.506 17.1415C121.103 15.994 120.489 14.9383 119.613 14.0627L115.37 18.3053ZM115.87 19.1977C116.009 19.5655 116.124 20.1269 116.124 20.952H122.124C122.124 19.6011 121.94 18.2852 121.482 17.0743L115.87 19.1977ZM116.124 20.952V31H122.124V20.952H116.124ZM119.124 28H115.092V34H119.124V28ZM118.092 31V21.976H112.092V31H118.092ZM118.092 21.976C118.092 20.3681 117.693 18.7007 116.527 17.3552L111.993 21.2848C111.975 21.2649 111.994 21.2734 112.021 21.3608C112.051 21.4579 112.092 21.6508 112.092 21.976H118.092ZM116.595 17.4367C115.374 15.9229 113.649 15.328 111.924 15.328V21.328C112.116 21.328 112.154 21.3589 112.103 21.3373C112.078 21.3266 112.042 21.3076 112.004 21.279C111.967 21.2504 111.94 21.2223 111.925 21.2033L116.595 17.4367ZM111.924 15.328C109.977 15.328 108.093 16.0377 106.821 17.7644L111.651 21.3236C111.657 21.3151 111.652 21.3236 111.634 21.3383C111.616 21.3533 111.599 21.3622 111.592 21.3653C111.578 21.372 111.663 21.328 111.924 21.328V15.328ZM106.812 17.7756C105.744 19.2395 105.372 20.998 105.372 22.744H111.372C111.372 21.802 111.575 21.4271 111.659 21.3124L106.812 17.7756ZM105.372 22.744V31H111.372V22.744H105.372ZM127.486 24.376V21.376H124.346L124.489 24.5122L127.486 24.376ZM127.805 25.688L125.094 26.9723L125.136 27.06L125.183 27.1449L127.805 25.688ZM128.637 26.712L126.662 28.9697L126.736 29.0349L126.815 29.0951L128.637 26.712ZM129.854 27.384L128.786 30.1875L128.864 30.2173L128.944 30.2428L129.854 27.384ZM133.63 27.096L135.247 29.6228L135.282 29.6003L135.316 29.5768L133.63 27.096ZM134.781 25.816L136.238 23.1935L133.451 21.6449L132.075 24.5216L134.781 25.816ZM138.238 27.736L140.949 29.0203L142.152 26.4791L139.694 25.1135L138.238 27.736ZM137.438 29.016L139.78 30.8901L139.802 30.8624L139.824 30.8341L137.438 29.016ZM136.094 30.2L134.452 27.6891L134.429 27.704L134.407 27.7192L136.094 30.2ZM134.109 31.096L133.255 28.2204L133.244 28.2236L133.233 28.2269L134.109 31.096ZM128.126 30.872L127.032 33.6657L128.126 30.872ZM125.566 29.208L123.413 31.2974L123.428 31.3135L123.444 31.3293L125.566 29.208ZM123.902 26.552L121.085 27.5865L121.095 27.6116L121.104 27.6366L123.902 26.552ZM123.934 19.48L121.173 18.3053L121.162 18.3304L121.152 18.3556L123.934 19.48ZM125.661 16.92L123.572 14.7673V14.7673L125.661 16.92ZM128.189 15.288L129.304 18.0734L129.319 18.0672L129.335 18.0608L128.189 15.288ZM134.846 15.416L133.504 18.0993L133.527 18.111L133.551 18.1224L134.846 15.416ZM137.277 17.24L135 19.1924L135.014 19.2087L135.028 19.2249L137.277 17.24ZM138.686 19.672L135.839 20.6207L135.843 20.6311L135.846 20.6414L138.686 19.672ZM139.133 24.376V27.376H142.133V24.376H139.133ZM128.798 19.128L130.672 21.4706L130.695 21.4519L130.718 21.4327L128.798 19.128ZM127.549 20.92L124.662 20.1078L123.589 23.92H127.549V20.92ZM135.038 20.92V23.92H138.596L137.994 20.4131L135.038 20.92ZM133.822 19.064L132.034 21.4733L132.052 21.4868L132.071 21.5L133.822 19.064ZM124.489 24.5122C124.527 25.3602 124.724 26.19 125.094 26.9723L130.517 24.4037C130.503 24.3753 130.487 24.3305 130.482 24.2398L124.489 24.5122ZM125.183 27.1449C125.57 27.841 126.069 28.4509 126.662 28.9697L130.613 24.4543C130.523 24.3758 130.468 24.3031 130.428 24.2311L125.183 27.1449ZM126.815 29.0951C127.419 29.5568 128.081 29.919 128.786 30.1875L130.921 24.5805C130.73 24.5077 130.581 24.4219 130.46 24.3289L126.815 29.0951ZM128.944 30.2428C129.719 30.4894 130.517 30.608 131.326 30.608V24.608C131.11 24.608 130.927 24.5773 130.763 24.5252L128.944 30.2428ZM131.326 30.608C132.596 30.608 134.025 30.4046 135.247 29.6228L132.012 24.5692C132.104 24.5107 132.124 24.5246 132.003 24.5514C131.881 24.5784 131.664 24.608 131.326 24.608V30.608ZM135.316 29.5768C136.207 28.9715 136.985 28.1618 137.488 27.1104L132.075 24.5216C132.088 24.4939 132.098 24.4854 132.088 24.4971C132.075 24.5108 132.034 24.553 131.943 24.6152L135.316 29.5768ZM133.325 28.4385L136.781 30.3585L139.694 25.1135L136.238 23.1935L133.325 28.4385ZM135.526 26.4517C135.443 26.6276 135.297 26.8759 135.051 27.1979L139.824 30.8341C140.261 30.2601 140.648 29.6551 140.949 29.0203L135.526 26.4517ZM135.095 27.1419C134.989 27.2743 134.795 27.4645 134.452 27.6891L137.735 32.7109C138.501 32.2101 139.203 31.6111 139.78 30.8901L135.095 27.1419ZM134.407 27.7192C134.188 27.8679 133.826 28.0506 133.255 28.2204L134.964 33.9716C135.972 33.672 136.932 33.2575 137.78 32.6808L134.407 27.7192ZM133.233 28.2269C132.82 28.3532 132.222 28.448 131.389 28.448V34.448C132.648 34.448 133.863 34.3082 134.986 33.9651L133.233 28.2269ZM131.389 28.448C130.519 28.448 129.808 28.309 129.219 28.0783L127.032 33.6657C128.405 34.203 129.87 34.448 131.389 34.448V28.448ZM129.219 28.0783C128.612 27.8409 128.111 27.5113 127.687 27.0867L123.444 31.3293C124.47 32.3554 125.676 33.1351 127.032 33.6657L129.219 28.0783ZM127.718 27.1186C127.323 26.7116 126.975 26.179 126.699 25.4674L121.104 27.6366C121.639 29.0156 122.4 30.2537 123.413 31.2974L127.718 27.1186ZM126.718 25.5175C126.476 24.8592 126.326 24.0344 126.326 23H120.326C120.326 24.611 120.559 26.1541 121.085 27.5865L126.718 25.5175ZM126.326 23V22.808H120.326V23H126.326ZM126.326 22.808C126.326 21.9296 126.471 21.208 126.715 20.6044L121.152 18.3556C120.586 19.7573 120.326 21.2544 120.326 22.808H126.326ZM126.694 20.6547C126.977 19.9905 127.334 19.4775 127.751 19.0727L123.572 14.7673C122.538 15.7705 121.744 16.9642 121.173 18.3053L126.694 20.6547ZM127.751 19.0727C128.189 18.6475 128.698 18.3155 129.304 18.0734L127.075 12.5026C125.761 13.0285 124.585 13.7845 123.572 14.7673L127.751 19.0727ZM129.335 18.0608C129.937 17.8122 130.591 17.68 131.326 17.68V11.68C129.841 11.68 128.405 11.9532 127.044 12.5152L129.335 18.0608ZM131.326 17.68C132.336 17.68 133.028 17.8616 133.504 18.0993L136.187 12.7327C134.7 11.9891 133.045 11.68 131.326 11.68V17.68ZM133.551 18.1224C134.196 18.4308 134.659 18.7949 135 19.1924L139.555 15.2876C138.616 14.1917 137.458 13.3399 136.14 12.7096L133.551 18.1224ZM135.028 19.2249C135.408 19.6558 135.671 20.116 135.839 20.6207L141.532 18.7233C141.102 17.436 140.427 16.2749 139.527 15.2551L135.028 19.2249ZM135.846 20.6414C136.05 21.2383 136.133 21.7642 136.133 22.232H142.133C142.133 21.0358 141.918 19.855 141.525 18.7026L135.846 20.6414ZM136.133 22.232V24.376H142.133V22.232H136.133ZM139.133 21.376H127.486V27.376H139.133V21.376ZM131.294 15.328C129.734 15.328 128.171 15.7446 126.877 16.8233L130.718 21.4327C130.727 21.4249 130.75 21.4063 130.817 21.3848C130.891 21.3611 131.04 21.328 131.294 21.328V15.328ZM126.923 16.7854C125.873 17.6259 125.049 18.7311 124.662 20.1078L130.437 21.7322C130.44 21.7219 130.446 21.7057 130.467 21.6745C130.491 21.64 130.549 21.5689 130.672 21.4706L126.923 16.7854ZM127.549 23.92H135.038V17.92H127.549V23.92ZM137.994 20.4131C137.718 18.8015 136.818 17.5232 135.572 16.628L132.071 21.5C132.113 21.5304 132.133 21.5503 132.14 21.5566C132.145 21.5625 132.139 21.5572 132.128 21.5401C132.117 21.5225 132.105 21.5002 132.095 21.4755C132.086 21.4511 132.082 21.4334 132.081 21.4269L137.994 20.4131ZM135.609 16.6547C134.316 15.6953 132.802 15.328 131.294 15.328V21.328C131.833 21.328 132.004 21.4513 132.034 21.4733L135.609 16.6547ZM163.249 8.6V5.6H160.249V8.6H163.249ZM167.473 8.6H170.473V5.6H167.473V8.6ZM167.473 26.968H164.473V29.968H167.473V26.968ZM177.649 26.968H180.649V23.968H177.649V26.968ZM177.649 31V34H180.649V31H177.649ZM163.249 31H160.249V34H163.249V31ZM163.249 11.6H167.473V5.6H163.249V11.6ZM164.473 8.6V26.968H170.473V8.6H164.473ZM167.473 29.968H177.649V23.968H167.473V29.968ZM174.649 26.968V31H180.649V26.968H174.649ZM177.649 28H163.249V34H177.649V28ZM166.249 31V8.6H160.249V31H166.249ZM193.467 15.128V12.128H190.467V15.128H193.467ZM197.499 15.128H200.499V12.128H197.499V15.128ZM197.499 31V34H200.499V31H197.499ZM193.467 31H190.467V34H193.467V31ZM193.467 28.696H196.467V25.696H193.467V28.696ZM192.891 28.696V25.696H190.829L190.09 27.6212L192.891 28.696ZM186.139 31.064L185.085 33.873L186.139 31.064ZM184.347 29.88L182.183 31.9576L184.347 29.88ZM183.131 27.896L180.292 28.8671L180.308 28.9126L180.325 28.9577L183.131 27.896ZM182.715 15.128V12.128H179.715V15.128H182.715ZM186.747 15.128H189.747V12.128H186.747V15.128ZM187.547 26.872L185.242 28.7926L185.258 28.8118L185.275 28.8308L187.547 26.872ZM192.603 26.648L190.179 24.8796L190.175 24.8855L190.171 24.8915L192.603 26.648ZM193.467 18.128H197.499V12.128H193.467V18.128ZM194.499 15.128V31H200.499V15.128H194.499ZM197.499 28H193.467V34H197.499V28ZM196.467 31V28.696H190.467V31H196.467ZM193.467 25.696H192.891V31.696H193.467V25.696ZM190.09 27.6212C189.949 27.989 189.798 28.1182 189.673 28.1939C189.509 28.293 189.129 28.448 188.347 28.448V34.448C189.89 34.448 191.43 34.1444 192.781 33.3261C194.171 32.4845 195.129 31.2377 195.692 29.7708L190.09 27.6212ZM188.347 28.448C187.887 28.448 187.511 28.3746 187.192 28.255L185.085 33.873C186.132 34.2654 187.228 34.448 188.347 34.448V28.448ZM187.192 28.255C186.936 28.1589 186.717 28.0166 186.511 27.8024L182.183 31.9576C183.001 32.8101 183.976 33.4571 185.085 33.873L187.192 28.255ZM186.511 27.8024C186.316 27.5994 186.112 27.2985 185.937 26.8343L180.325 28.9577C180.747 30.0722 181.353 31.0939 182.183 31.9576L186.511 27.8024ZM185.969 26.9249C185.823 26.4982 185.715 25.8906 185.715 25.048H179.715C179.715 26.3814 179.884 27.6725 180.292 28.8671L185.969 26.9249ZM185.715 25.048V15.128H179.715V25.048H185.715ZM182.715 18.128H186.747V12.128H182.715V18.128ZM183.747 15.128V24.216H189.747V15.128H183.747ZM183.747 24.216C183.747 25.7978 184.122 27.4479 185.242 28.7926L189.851 24.9514C189.905 25.0161 189.747 24.8955 189.747 24.216H183.747ZM185.275 28.8308C186.54 30.2994 188.292 30.8 189.947 30.8V24.8C189.697 24.8 189.611 24.763 189.629 24.7699C189.639 24.7741 189.67 24.7875 189.711 24.8157C189.752 24.8442 189.789 24.8783 189.819 24.9132L185.275 28.8308ZM189.947 30.8C191.824 30.8 193.76 30.1699 195.035 28.4045L190.171 24.8915C190.186 24.8699 190.213 24.8393 190.251 24.8094C190.288 24.7797 190.318 24.7646 190.329 24.7597C190.347 24.7517 190.247 24.8 189.947 24.8V30.8ZM195.026 28.4164C196.094 26.9525 196.467 25.194 196.467 23.448H190.467C190.467 24.39 190.263 24.7648 190.179 24.8796L195.026 28.4164ZM196.467 23.448V15.128H190.467V23.448H196.467ZM217.797 25.176L220.742 25.745L221.281 22.9548L218.524 22.2656L217.797 25.176ZM215.204 29.72L213.27 27.4271L213.261 27.4346L213.252 27.4422L215.204 29.72ZM206.501 30.904L205.48 33.7251L205.49 33.7285L205.499 33.7319L206.501 30.904ZM203.876 29.336L201.852 31.5501L203.876 29.336ZM202.117 26.808L204.877 25.6333L202.117 26.808ZM203.876 16.92L201.817 14.739L201.801 14.7535L201.786 14.7682L203.876 16.92ZM206.533 15.256L205.479 12.447L205.469 12.4507L205.46 12.4544L206.533 15.256ZM215.173 16.408L213.238 18.7009L213.247 18.7083L213.255 18.7156L215.173 16.408ZM217.797 20.952L218.546 23.8568L221.277 23.1521L220.742 20.383L217.797 20.952ZM213.829 21.976L210.856 22.3813L211.312 25.7238L214.578 24.8808L213.829 21.976ZM212.613 19.544L210.491 21.6653L212.613 19.544ZM208.1 18.84L206.947 16.0708V16.0708L208.1 18.84ZM206.757 19.768L208.878 21.8893L208.906 21.8607L208.934 21.8312L206.757 19.768ZM205.829 21.208L203.05 20.0761L203.039 20.1035L203.028 20.1311L205.829 21.208ZM205.829 25.176L203.028 26.2529L203.054 26.3192L203.083 26.3842L205.829 25.176ZM206.757 26.52L204.697 28.701L206.757 26.52ZM208.1 27.352L207.047 30.161L207.099 30.1805L207.152 30.1981L208.1 27.352ZM212.549 26.68L210.499 24.4892L210.481 24.506L210.463 24.523L212.549 26.68ZM213.829 24.184L214.556 21.2736L211.455 20.4984L210.878 23.642L213.829 24.184ZM214.851 24.607C214.609 25.8619 214.073 26.7496 213.27 27.4271L217.139 32.0129C219.067 30.3864 220.259 28.2448 220.742 25.745L214.851 24.607ZM213.252 27.4422C212.589 28.0108 211.545 28.448 209.796 28.448V34.448C212.57 34.448 215.132 33.7332 217.157 31.9978L213.252 27.4422ZM209.796 28.448C208.937 28.448 208.18 28.3161 207.502 28.0761L205.499 33.7319C206.869 34.2173 208.309 34.448 209.796 34.448V28.448ZM207.521 28.0829C206.869 27.8472 206.341 27.5239 205.901 27.1219L201.852 31.5501C202.906 32.5134 204.126 33.2355 205.48 33.7251L207.521 28.0829ZM205.901 27.1219C205.495 26.7509 205.149 26.2718 204.877 25.6333L199.356 27.9827C199.938 29.3496 200.765 30.5558 201.852 31.5501L205.901 27.1219ZM204.877 25.6333C204.633 25.0612 204.477 24.3299 204.477 23.384H198.477C198.477 24.9981 198.746 26.5495 199.356 27.9827L204.877 25.6333ZM204.477 23.384V23H198.477V23.384H204.477ZM204.477 23C204.477 22.0557 204.633 21.3044 204.886 20.6978L199.347 18.3902C198.747 19.8316 198.477 21.3843 198.477 23H204.477ZM204.886 20.6978C205.166 20.0241 205.531 19.4957 205.967 19.0718L201.786 14.7682C200.729 15.795 199.92 17.0159 199.347 18.3902L204.886 20.6978ZM205.936 19.101C206.414 18.6496 206.963 18.3036 207.605 18.0576L205.46 12.4544C204.097 12.9764 202.875 13.7397 201.817 14.739L205.936 19.101ZM207.586 18.065C208.255 17.8139 208.985 17.68 209.796 17.68V11.68C208.304 11.68 206.858 11.9301 205.479 12.447L207.586 18.065ZM209.796 17.68C211.484 17.68 212.535 18.1079 213.238 18.7009L217.107 14.1151C215.079 12.4041 212.546 11.68 209.796 11.68V17.68ZM213.255 18.7156C214.075 19.3962 214.611 20.2802 214.851 21.521L220.742 20.383C220.256 17.8692 219.044 15.7238 217.09 14.1004L213.255 18.7156ZM217.047 18.0472L213.079 19.0712L214.578 24.8808L218.546 23.8568L217.047 18.0472ZM216.801 21.5707C216.583 19.9691 215.871 18.5594 214.734 17.4227L210.491 21.6653C210.72 21.8939 210.818 22.1056 210.856 22.3813L216.801 21.5707ZM214.734 17.4227C213.342 16.0307 211.531 15.52 209.732 15.52V21.52C210.08 21.52 210.279 21.5683 210.375 21.6026C210.459 21.6325 210.482 21.6565 210.491 21.6653L214.734 17.4227ZM209.732 15.52C208.776 15.52 207.838 15.6992 206.947 16.0708L209.254 21.6092C209.387 21.5541 209.537 21.52 209.732 21.52V15.52ZM206.947 16.0708C206.045 16.4464 205.249 16.9972 204.579 17.7048L208.934 21.8312C209.032 21.7281 209.132 21.6602 209.254 21.6092L206.947 16.0708ZM204.635 17.6467C203.93 18.3515 203.414 19.1833 203.05 20.0761L208.607 22.3399C208.712 22.0807 208.815 21.9525 208.878 21.8893L204.635 17.6467ZM203.028 20.1311C202.661 21.0865 202.508 22.0903 202.508 23.096H208.508C208.508 22.6937 208.569 22.4389 208.629 22.2849L203.028 20.1311ZM202.508 23.096V23.288H208.508V23.096H202.508ZM202.508 23.288C202.508 24.2937 202.661 25.2975 203.028 26.2529L208.629 24.0991C208.569 23.9451 208.508 23.6903 208.508 23.288H202.508ZM203.083 26.3842C203.462 27.2464 203.993 28.036 204.697 28.701L208.816 24.339C208.752 24.2786 208.664 24.1723 208.574 23.9678L203.083 26.3842ZM204.697 28.701C205.381 29.3476 206.175 29.8338 207.047 30.161L209.154 24.543C209.002 24.4862 208.9 24.4177 208.816 24.339L204.697 28.701ZM207.152 30.1981C207.99 30.4773 208.856 30.608 209.732 30.608V24.608C209.457 24.608 209.235 24.568 209.049 24.5059L207.152 30.1981ZM209.732 30.608C211.441 30.608 213.247 30.1777 214.634 28.837L210.463 24.523C210.503 24.485 210.513 24.4978 210.426 24.5267C210.324 24.5601 210.109 24.608 209.732 24.608V30.608ZM214.598 28.8708C215.806 27.7405 216.492 26.2898 216.779 24.726L210.878 23.642C210.781 24.1689 210.613 24.3822 210.499 24.4892L214.598 28.8708ZM213.101 27.0944L217.069 28.0864L218.524 22.2656L214.556 21.2736L213.101 27.0944ZM222.19 27.16V24.16H219.19V27.16H222.19ZM227.566 27.16V30.16H230.566V27.16H227.566ZM227.566 18.968H230.566V15.968H227.566V18.968ZM222.574 18.968H219.574V21.968H222.574V18.968ZM222.574 15.128V12.128H219.574V15.128H222.574ZM231.598 15.128H234.598V12.128H231.598V15.128ZM231.598 27.16H228.598V30.16H231.598V27.16ZM236.206 27.16H239.206V24.16H236.206V27.16ZM236.206 31V34H239.206V31H236.206ZM222.19 31H219.19V34H222.19V31ZM232.334 11.64L229.593 10.4216L229.576 10.4594L229.56 10.4978L232.334 11.64ZM231.694 12.6L233.729 14.8044L233.773 14.7637L233.816 14.7213L231.694 12.6ZM230.702 13.24L231.844 16.014L231.883 15.9983L231.921 15.9814L230.702 13.24ZM228.366 13.24L227.089 15.9545L227.156 15.9859L227.224 16.014L228.366 13.24ZM227.406 12.6L225.285 14.7213L225.327 14.7637L225.371 14.8044L227.406 12.6ZM226.734 11.64L223.938 12.7273L223.976 12.8238L224.02 12.9174L226.734 11.64ZM226.734 9.24L223.993 8.02158L223.976 8.05944L223.96 8.09775L226.734 9.24ZM227.406 8.28L229.441 10.4844L229.485 10.4437L229.528 10.4013L227.406 8.28ZM228.366 7.64L229.508 10.414L229.577 10.3859L229.644 10.3545L228.366 7.64ZM230.702 7.64L229.425 10.3545L229.518 10.3985L229.615 10.436L230.702 7.64ZM231.694 8.28L229.573 10.4013L229.615 10.4437L229.659 10.4844L231.694 8.28ZM232.334 9.24L229.538 10.3273L229.576 10.4238L229.62 10.5174L232.334 9.24ZM222.19 30.16H227.566V24.16H222.19V30.16ZM230.566 27.16V18.968H224.566V27.16H230.566ZM227.566 15.968H222.574V21.968H227.566V15.968ZM225.574 18.968V15.128H219.574V18.968H225.574ZM222.574 18.128H231.598V12.128H222.574V18.128ZM228.598 15.128V27.16H234.598V15.128H228.598ZM231.598 30.16H236.206V24.16H231.598V30.16ZM233.206 27.16V31H239.206V27.16H233.206ZM236.206 28H222.19V34H236.206V28ZM225.19 31V27.16H219.19V31H225.19ZM229.59 10.424C229.59 10.4305 229.59 10.4336 229.59 10.4339C229.59 10.4342 229.59 10.4327 229.591 10.43C229.591 10.4273 229.592 10.4246 229.593 10.4225C229.593 10.4204 229.594 10.42 229.593 10.4216L235.076 12.8584C235.42 12.0848 235.59 11.2638 235.59 10.424H229.59ZM229.56 10.4978C229.56 10.4994 229.56 10.4988 229.561 10.4965C229.562 10.4943 229.564 10.4913 229.566 10.4879C229.568 10.4845 229.57 10.4818 229.572 10.4798C229.574 10.4778 229.574 10.4774 229.573 10.4787L233.816 14.7213C234.373 14.1639 234.808 13.5112 235.108 12.7822L229.56 10.4978ZM229.659 10.3956C229.649 10.4055 229.602 10.4461 229.484 10.4986L231.921 15.9814C232.571 15.6926 233.185 15.3065 233.729 14.8044L229.659 10.3956ZM229.56 10.466C229.56 10.4658 229.562 10.4652 229.564 10.4645C229.566 10.4638 229.568 10.4634 229.57 10.4632C229.571 10.4629 229.57 10.4631 229.568 10.4633C229.565 10.4636 229.559 10.464 229.55 10.464V16.464C230.334 16.464 231.107 16.3176 231.844 16.014L229.56 10.466ZM229.55 10.464C229.512 10.464 229.494 10.4608 229.492 10.4603C229.49 10.4599 229.497 10.4612 229.508 10.466L227.224 16.014C227.98 16.3252 228.766 16.464 229.55 16.464V10.464ZM229.644 10.5255C229.541 10.4771 229.48 10.4314 229.441 10.3956L225.371 14.8044C225.887 15.2806 226.466 15.6615 227.089 15.9545L229.644 10.5255ZM229.528 10.4787C229.501 10.4517 229.475 10.4188 229.449 10.3626L224.02 12.9174C224.335 13.5865 224.757 14.1936 225.285 14.7213L229.528 10.4787ZM229.53 10.5527C229.521 10.5276 229.51 10.4922 229.51 10.424H223.51C223.51 11.2092 223.649 11.9843 223.938 12.7273L229.53 10.5527ZM229.51 10.424C229.51 10.3862 229.513 10.3682 229.514 10.3657C229.514 10.3638 229.513 10.3706 229.508 10.3823L223.96 8.09775C223.649 8.85348 223.51 9.64014 223.51 10.424H229.51ZM229.476 10.4584C229.489 10.4293 229.494 10.4232 229.488 10.4324C229.481 10.4423 229.466 10.4617 229.441 10.4844L225.371 6.07559C224.762 6.63857 224.311 7.30668 223.993 8.02158L229.476 10.4584ZM229.528 10.4013C229.529 10.4001 229.528 10.4006 229.526 10.4022C229.524 10.4038 229.522 10.4059 229.518 10.4081C229.515 10.4104 229.512 10.4121 229.51 10.4133C229.507 10.4145 229.507 10.4147 229.508 10.414L227.224 4.86596C226.495 5.1661 225.842 5.60128 225.285 6.15868L229.528 10.4013ZM229.644 10.3545C229.618 10.3666 229.591 10.3753 229.568 10.3802C229.546 10.3851 229.538 10.384 229.55 10.384V4.384C228.711 4.384 227.877 4.55484 227.089 4.92554L229.644 10.3545ZM229.55 10.384C229.541 10.384 229.52 10.3828 229.491 10.3766C229.463 10.3703 229.44 10.3616 229.425 10.3545L231.98 4.92554C231.213 4.56465 230.392 4.384 229.55 4.384V10.384ZM229.615 10.436C229.627 10.4408 229.624 10.4409 229.612 10.4329C229.599 10.4247 229.585 10.4135 229.573 10.4013L233.816 6.15868C233.229 5.57241 232.541 5.13633 231.79 4.84398L229.615 10.436ZM229.659 10.4844C229.62 10.4482 229.589 10.4101 229.566 10.3761C229.544 10.3429 229.537 10.3236 229.538 10.3273L235.13 8.15266C234.831 7.38286 234.372 6.66879 233.729 6.07559L229.659 10.4844ZM229.62 10.5174C229.608 10.4917 229.599 10.465 229.594 10.442C229.589 10.4196 229.59 10.4118 229.59 10.424H235.59C235.59 9.58478 235.419 8.75035 235.049 7.9626L229.62 10.5174ZM251.768 28.696V25.696H249.784L249.008 27.5213L251.768 28.696ZM249.976 30.84L251.376 33.4932L251.405 33.4781L251.433 33.4625L249.976 30.84ZM244.568 30.904L243.369 33.6541L243.382 33.6596L243.395 33.665L244.568 30.904ZM242.36 29.304L244.58 27.286L242.36 29.304ZM240.824 26.744L238.003 27.7644L238.012 27.7908L238.022 27.8169L240.824 26.744ZM240.824 19.416L243.645 20.4364L240.824 19.416ZM242.296 16.856L240.043 14.8757L242.296 16.856ZM244.44 15.256L245.665 17.9945L245.681 17.9873L245.697 17.9799L244.44 15.256ZM249.816 15.256L248.345 17.8707L248.362 17.8803L248.379 17.8897L249.816 15.256ZM251.48 17.048L248.797 18.3896L249.626 20.048H251.48V17.048ZM252.056 17.048V20.048H255.056V17.048H252.056ZM252.056 15.128V12.128H249.056V15.128H252.056ZM256.088 15.128H259.088V12.128H256.088V15.128ZM257.56 27.16H260.56V24.16H257.56V27.16ZM257.56 31V34H260.56V31H257.56ZM253.016 30.36L250.947 32.5324L250.972 32.5564L250.998 32.5798L253.016 30.36ZM252.344 28.696H255.344V25.696H252.344V28.696ZM251 26.456L253.211 28.4832L253.225 28.4681L253.239 28.4528L251 26.456ZM251 19.704L248.761 21.7008L248.775 21.7161L248.789 21.7312L251 19.704ZM245.368 19.704L247.579 21.7312L247.593 21.7161L247.607 21.7008L245.368 19.704ZM245.368 26.456L243.129 28.4528L243.143 28.4681L243.157 28.4832L245.368 26.456ZM249.008 27.5213C248.778 28.0607 248.575 28.1865 248.519 28.2175L251.433 33.4625C252.913 32.6401 253.905 31.3366 254.528 29.8707L249.008 27.5213ZM248.576 28.1868C248.31 28.3268 247.911 28.448 247.288 28.448V34.448C248.713 34.448 250.106 34.1638 251.376 33.4932L248.576 28.1868ZM247.288 28.448C246.717 28.448 246.21 28.3424 245.741 28.143L243.395 33.665C244.632 34.191 245.939 34.448 247.288 34.448V28.448ZM245.767 28.1539C245.342 27.9686 244.949 27.6921 244.58 27.286L240.14 31.322C241.051 32.3239 242.13 33.114 243.369 33.6541L245.767 28.1539ZM244.58 27.286C244.221 26.8913 243.893 26.3698 243.626 25.6711L238.022 27.8169C238.523 29.1236 239.219 30.3087 240.14 31.322L244.58 27.286ZM243.645 25.7236C243.422 25.1063 243.28 24.3199 243.28 23.32H237.28C237.28 24.8801 237.501 26.3763 238.003 27.7644L243.645 25.7236ZM243.28 23.32V22.808H237.28V23.32H243.28ZM243.28 22.808C243.28 21.8359 243.42 21.0588 243.645 20.4364L238.003 18.3956C237.503 19.7786 237.28 21.2627 237.28 22.808H243.28ZM243.645 20.4364C243.898 19.7382 244.21 19.2226 244.549 18.8363L240.043 14.8757C239.145 15.8974 238.476 17.0884 238.003 18.3956L243.645 20.4364ZM244.549 18.8363C244.9 18.4377 245.269 18.1715 245.665 17.9945L243.215 12.5175C241.989 13.0658 240.93 13.8663 240.043 14.8757L244.549 18.8363ZM245.697 17.9799C246.125 17.7823 246.581 17.68 247.096 17.68V11.68C245.734 11.68 244.419 11.9617 243.183 12.5321L245.697 17.9799ZM247.096 17.68C247.926 17.68 248.267 17.8269 248.345 17.8707L251.287 12.6413C249.999 11.9171 248.528 11.68 247.096 11.68V17.68ZM248.379 17.8897C248.477 17.9431 248.628 18.0528 248.797 18.3896L254.163 15.7064C253.521 14.4219 252.563 13.3369 251.253 12.6223L248.379 17.8897ZM251.48 20.048H252.056V14.048H251.48V20.048ZM255.056 17.048V15.128H249.056V17.048H255.056ZM252.056 18.128H256.088V12.128H252.056V18.128ZM253.088 15.128V26.2H259.088V15.128H253.088ZM253.088 26.2C253.088 26.909 253.241 28.0009 254.074 28.9269C254.962 29.913 256.115 30.16 256.952 30.16V24.16C257.213 24.16 257.934 24.247 258.534 24.9131C259.079 25.5191 259.088 26.131 259.088 26.2H253.088ZM256.952 30.16H257.56V24.16H256.952V30.16ZM254.56 27.16V31H260.56V27.16H254.56ZM257.56 28H254.808V34H257.56V28ZM254.808 28C254.741 28 254.757 27.9905 254.825 28.0148C254.858 28.0266 254.896 28.0439 254.935 28.0675C254.975 28.0912 255.008 28.1166 255.034 28.1402L250.998 32.5798C252.099 33.5807 253.451 34 254.808 34V28ZM255.085 28.1876C255.16 28.2588 255.24 28.3678 255.294 28.5006C255.345 28.6271 255.344 28.7063 255.344 28.696H249.344C249.344 30.1057 249.84 31.4778 250.947 32.5324L255.085 28.1876ZM252.344 25.696H251.768V31.696H252.344V25.696ZM248.184 30.608C250.081 30.608 251.864 29.9527 253.211 28.4832L248.789 24.4288C248.728 24.4953 248.634 24.608 248.184 24.608V30.608ZM253.239 28.4528C254.555 26.9775 255.056 25.1306 255.056 23.256H249.056C249.056 24.0694 248.853 24.3558 248.761 24.4592L253.239 28.4528ZM255.056 23.256V22.872H249.056V23.256H255.056ZM255.056 22.872C255.056 21.002 254.556 19.1439 253.211 17.6768L248.789 21.7312C248.852 21.8001 249.056 22.054 249.056 22.872H255.056ZM253.239 17.7072C251.9 16.2056 250.108 15.52 248.184 15.52V21.52C248.607 21.52 248.692 21.6237 248.761 21.7008L253.239 17.7072ZM248.184 15.52C246.26 15.52 244.468 16.2056 243.129 17.7072L247.607 21.7008C247.676 21.6237 247.761 21.52 248.184 21.52V15.52ZM243.157 17.6768C241.812 19.1439 241.312 21.002 241.312 22.872H247.312C247.312 22.054 247.516 21.8001 247.579 21.7312L243.157 17.6768ZM241.312 22.872V23.256H247.312V22.872H241.312ZM241.312 23.256C241.312 25.1306 241.813 26.9775 243.129 28.4528L247.607 24.4592C247.515 24.3558 247.312 24.0694 247.312 23.256H241.312ZM243.157 28.4832C244.504 29.9527 246.287 30.608 248.184 30.608V24.608C247.734 24.608 247.64 24.4953 247.579 24.4288L243.157 28.4832ZM265.122 31V34H268.122V31H265.122ZM261.09 31H258.09V34H261.09V31ZM261.09 15.128V12.128H258.09V15.128H261.09ZM265.122 15.128H268.122V12.128H265.122V15.128ZM265.122 17.496H262.122V20.496H265.122V17.496ZM265.698 17.496V20.496H267.72L268.479 18.6216L265.698 17.496ZM267.458 15.416L269.011 17.9825V17.9825L267.458 15.416ZM272.45 15.064L271.367 17.8617L271.42 17.8824L271.475 17.9011L272.45 15.064ZM274.242 16.184L276.363 14.0627L274.242 16.184ZM275.426 18.136L272.595 19.1305L272.607 19.1642L272.62 19.1977L275.426 18.136ZM275.874 31V34H278.874V31H275.874ZM271.842 31H268.842V34H271.842V31ZM271.01 19.32L268.674 21.2033L268.708 21.2446L268.743 21.2848L271.01 19.32ZM265.986 19.544L263.571 17.7644L263.562 17.7756L265.986 19.544ZM265.122 28H261.09V34H265.122V28ZM264.09 31V15.128H258.09V31H264.09ZM261.09 18.128H265.122V12.128H261.09V18.128ZM262.122 15.128V17.496H268.122V15.128H262.122ZM265.122 20.496H265.698V14.496H265.122V20.496ZM268.479 18.6216C268.604 18.3128 268.766 18.1307 269.011 17.9825L265.904 12.8495C264.528 13.6826 263.517 14.8872 262.917 16.3704L268.479 18.6216ZM269.011 17.9825C269.287 17.8154 269.683 17.68 270.306 17.68V11.68C268.753 11.68 267.25 12.0353 265.904 12.8495L269.011 17.9825ZM270.306 17.68C270.734 17.68 271.079 17.7501 271.367 17.8617L273.533 12.2663C272.498 11.8659 271.413 11.68 270.306 11.68V17.68ZM271.475 17.9011C271.724 17.9869 271.93 18.1149 272.12 18.3053L276.363 14.0627C275.529 13.2291 274.54 12.6104 273.425 12.2269L271.475 17.9011ZM272.12 18.3053C272.269 18.4537 272.444 18.6993 272.595 19.1305L278.256 17.1415C277.853 15.994 277.239 14.9383 276.363 14.0627L272.12 18.3053ZM272.62 19.1977C272.759 19.5655 272.874 20.1269 272.874 20.952H278.874C278.874 19.6011 278.69 18.2852 278.232 17.0743L272.62 19.1977ZM272.874 20.952V31H278.874V20.952H272.874ZM275.874 28H271.842V34H275.874V28ZM274.842 31V21.976H268.842V31H274.842ZM274.842 21.976C274.842 20.3681 274.443 18.7007 273.277 17.3552L268.743 21.2848C268.725 21.2649 268.744 21.2734 268.771 21.3608C268.801 21.4579 268.842 21.6508 268.842 21.976H274.842ZM273.345 17.4367C272.124 15.9229 270.399 15.328 268.674 15.328V21.328C268.866 21.328 268.904 21.3589 268.853 21.3373C268.828 21.3266 268.792 21.3076 268.754 21.279C268.717 21.2504 268.69 21.2223 268.674 21.2033L273.345 17.4367ZM268.674 15.328C266.727 15.328 264.843 16.0377 263.571 17.7644L268.401 21.3236C268.407 21.3151 268.402 21.3236 268.384 21.3383C268.366 21.3533 268.349 21.3622 268.342 21.3653C268.328 21.372 268.413 21.328 268.674 21.328V15.328ZM263.562 17.7756C262.494 19.2395 262.122 20.998 262.122 22.744H268.122C268.122 21.802 268.325 21.4271 268.409 21.3124L263.562 17.7756ZM262.122 22.744V31H268.122V22.744H262.122ZM280.971 27.16V24.16H277.971V27.16H280.971ZM286.348 27.16V30.16H289.348V27.16H286.348ZM286.348 18.968H289.348V15.968H286.348V18.968ZM281.355 18.968H278.355V21.968H281.355V18.968ZM281.355 15.128V12.128H278.355V15.128H281.355ZM290.379 15.128H293.379V12.128H290.379V15.128ZM290.379 27.16H287.379V30.16H290.379V27.16ZM294.987 27.16H297.987V24.16H294.987V27.16ZM294.987 31V34H297.987V31H294.987ZM280.971 31H277.971V34H280.971V31ZM291.116 11.64L288.374 10.4216L288.357 10.4594L288.341 10.4978L291.116 11.64ZM290.475 12.6L292.51 14.8044L292.554 14.7637L292.597 14.7213L290.475 12.6ZM289.483 13.24L290.626 16.014L290.664 15.9983L290.702 15.9814L289.483 13.24ZM287.147 13.24L285.87 15.9545L285.937 15.9859L286.005 16.014L287.147 13.24ZM286.188 12.6L284.066 14.7213L284.109 14.7637L284.153 14.8044L286.188 12.6ZM285.516 11.64L282.719 12.7273L282.757 12.8238L282.801 12.9174L285.516 11.64ZM285.516 9.24L282.774 8.02158L282.757 8.05944L282.741 8.09775L285.516 9.24ZM286.188 8.28L288.222 10.4844L288.266 10.4437L288.309 10.4013L286.188 8.28ZM287.147 7.64L288.29 10.414L288.358 10.3859L288.425 10.3545L287.147 7.64ZM289.483 7.64L288.206 10.3545L288.3 10.3985L288.396 10.436L289.483 7.64ZM290.475 8.28L288.354 10.4013L288.397 10.4437L288.441 10.4844L290.475 8.28ZM291.116 9.24L288.319 10.3273L288.357 10.4238L288.401 10.5174L291.116 9.24ZM280.971 30.16H286.348V24.16H280.971V30.16ZM289.348 27.16V18.968H283.348V27.16H289.348ZM286.348 15.968H281.355V21.968H286.348V15.968ZM284.355 18.968V15.128H278.355V18.968H284.355ZM281.355 18.128H290.379V12.128H281.355V18.128ZM287.379 15.128V27.16H293.379V15.128H287.379ZM290.379 30.16H294.987V24.16H290.379V30.16ZM291.987 27.16V31H297.987V27.16H291.987ZM294.987 28H280.971V34H294.987V28ZM283.971 31V27.16H277.971V31H283.971ZM288.371 10.424C288.371 10.4305 288.371 10.4336 288.371 10.4339C288.371 10.4342 288.371 10.4327 288.372 10.43C288.372 10.4273 288.373 10.4246 288.374 10.4225C288.375 10.4204 288.375 10.42 288.374 10.4216L293.857 12.8584C294.201 12.0848 294.371 11.2638 294.371 10.424H288.371ZM288.341 10.4978C288.341 10.4994 288.341 10.4988 288.342 10.4965C288.343 10.4943 288.345 10.4913 288.347 10.4879C288.35 10.4845 288.352 10.4818 288.353 10.4798C288.355 10.4778 288.355 10.4774 288.354 10.4787L292.597 14.7213C293.154 14.1639 293.589 13.5112 293.89 12.7822L288.341 10.4978ZM288.441 10.3956C288.43 10.4055 288.383 10.4461 288.265 10.4986L290.702 15.9814C291.352 15.6926 291.966 15.3065 292.51 14.8044L288.441 10.3956ZM288.341 10.466C288.342 10.4658 288.343 10.4652 288.345 10.4645C288.348 10.4638 288.35 10.4634 288.351 10.4632C288.352 10.4629 288.352 10.4631 288.349 10.4633C288.346 10.4636 288.341 10.464 288.332 10.464V16.464C289.115 16.464 289.889 16.3176 290.626 16.014L288.341 10.466ZM288.332 10.464C288.294 10.464 288.276 10.4608 288.273 10.4603C288.271 10.4599 288.278 10.4612 288.29 10.466L286.005 16.014C286.761 16.3252 287.548 16.464 288.332 16.464V10.464ZM288.425 10.5255C288.322 10.4771 288.261 10.4314 288.222 10.3956L284.153 14.8044C284.669 15.2806 285.248 15.6615 285.87 15.9545L288.425 10.5255ZM288.309 10.4787C288.282 10.4517 288.256 10.4188 288.23 10.3626L282.801 12.9174C283.116 13.5865 283.538 14.1936 284.066 14.7213L288.309 10.4787ZM288.312 10.5527C288.302 10.5276 288.292 10.4922 288.292 10.424H282.292C282.292 11.2092 282.431 11.9843 282.719 12.7273L288.312 10.5527ZM288.292 10.424C288.292 10.3862 288.295 10.3682 288.295 10.3657C288.296 10.3638 288.294 10.3706 288.29 10.3823L282.741 8.09775C282.43 8.85348 282.292 9.64014 282.292 10.424H288.292ZM288.257 10.4584C288.27 10.4293 288.276 10.4232 288.269 10.4324C288.262 10.4423 288.247 10.4617 288.222 10.4844L284.153 6.07559C283.543 6.63857 283.092 7.30668 282.774 8.02158L288.257 10.4584ZM288.309 10.4013C288.31 10.4001 288.31 10.4006 288.308 10.4022C288.306 10.4038 288.303 10.4059 288.3 10.4081C288.296 10.4104 288.293 10.4121 288.291 10.4133C288.289 10.4145 288.288 10.4147 288.29 10.414L286.005 4.86596C285.276 5.1661 284.624 5.60128 284.066 6.15868L288.309 10.4013ZM288.425 10.3545C288.399 10.3666 288.373 10.3753 288.349 10.3802C288.327 10.3851 288.319 10.384 288.332 10.384V4.384C287.492 4.384 286.658 4.55484 285.87 4.92554L288.425 10.3545ZM288.332 10.384C288.322 10.384 288.301 10.3828 288.273 10.3766C288.245 10.3703 288.221 10.3616 288.206 10.3545L290.761 4.92554C289.994 4.56465 289.173 4.384 288.332 4.384V10.384ZM288.396 10.436C288.409 10.4408 288.406 10.4409 288.393 10.4329C288.38 10.4247 288.366 10.4135 288.354 10.4013L292.597 6.15868C292.011 5.57241 291.323 5.13633 290.571 4.84398L288.396 10.436ZM288.441 10.4844C288.401 10.4482 288.37 10.4101 288.347 10.3761C288.325 10.3429 288.318 10.3236 288.319 10.3273L293.912 8.15266C293.612 7.38286 293.153 6.66879 292.51 6.07559L288.441 10.4844ZM288.401 10.5174C288.389 10.4917 288.38 10.465 288.375 10.442C288.37 10.4196 288.371 10.4118 288.371 10.424H294.371C294.371 9.58478 294.201 8.75035 293.83 7.9626L288.401 10.5174ZM335.615 31.96H338.615V28.96H335.615V31.96ZM335.615 35.992V38.992H338.615V35.992H335.615ZM329.759 35.288L330.695 32.4377L330.682 32.4334L330.669 32.4292L329.759 35.288ZM326.047 33.144L328.078 30.9362L328.066 30.9251L328.054 30.9141L326.047 33.144ZM323.487 29.432L320.71 30.5664L320.717 30.5831L320.724 30.5997L323.487 29.432ZM323.487 10.168L320.724 9.00035L320.717 9.01694L320.71 9.03362L323.487 10.168ZM326.047 6.456L328.054 8.68588L328.066 8.6749L328.078 8.66379L326.047 6.456ZM329.759 4.312L330.669 7.17078L330.682 7.16658L330.695 7.16227L329.759 4.312ZM335.615 3.608H338.615V0.607998H335.615V3.608ZM335.615 7.64V10.64H338.615V7.64H335.615ZM328.927 9.528L326.873 7.34146L326.856 7.35724L326.84 7.37328L328.927 9.528ZM327.295 12.088L324.498 11.0034L324.492 11.019L324.486 11.0346L327.295 12.088ZM327.295 27.544L324.479 28.5784L324.492 28.6135L324.506 28.6481L327.295 27.544ZM328.927 30.072L326.84 32.2267L326.856 32.2428L326.873 32.2585L328.927 30.072ZM331.391 31.512L330.481 34.3708L331.391 31.512ZM332.615 31.96V35.992H338.615V31.96H332.615ZM335.615 32.992H334.271V38.992H335.615V32.992ZM334.271 32.992C332.994 32.992 331.808 32.8031 330.695 32.4377L328.823 38.1383C330.569 38.7116 332.39 38.992 334.271 38.992V32.992ZM330.669 32.4292C329.669 32.1112 328.817 31.6155 328.078 30.9362L324.016 35.3518C325.411 36.6352 327.033 37.5688 328.849 38.1468L330.669 32.4292ZM328.054 30.9141C327.359 30.2885 326.744 29.4328 326.25 28.2644L320.724 30.5997C321.51 32.4605 322.602 34.0795 324.04 35.3739L328.054 30.9141ZM326.264 28.2976C325.827 27.2279 325.559 25.8292 325.559 24.024H319.559C319.559 26.4001 319.909 28.6068 320.71 30.5664L326.264 28.2976ZM325.559 24.024V15.576H319.559V24.024H325.559ZM325.559 15.576C325.559 13.7708 325.827 12.3721 326.264 11.3024L320.71 9.03362C319.909 10.9932 319.559 13.1999 319.559 15.576H325.559ZM326.25 11.3356C326.744 10.1672 327.359 9.31149 328.054 8.68588L324.04 4.22612C322.602 5.52051 321.51 7.13947 320.724 9.00035L326.25 11.3356ZM328.078 8.66379C328.817 7.9845 329.669 7.4888 330.669 7.17078L328.849 1.45322C327.033 2.0312 325.411 2.96483 324.016 4.24821L328.078 8.66379ZM330.695 7.16227C331.808 6.79694 332.994 6.608 334.271 6.608V0.607998C332.39 0.607998 330.569 0.888393 328.823 1.46172L330.695 7.16227ZM334.271 6.608H335.615V0.607998H334.271V6.608ZM332.615 3.608V7.64H338.615V3.608H332.615ZM335.615 4.64H334.463V10.64H335.615V4.64ZM334.463 4.64C333.083 4.64 331.749 4.82599 330.481 5.22922L332.301 10.9468C332.911 10.7527 333.624 10.64 334.463 10.64V4.64ZM330.481 5.22922C329.125 5.66093 327.91 6.3672 326.873 7.34146L330.981 11.7145C331.352 11.3661 331.78 11.1124 332.301 10.9468L330.481 5.22922ZM326.84 7.37328C325.795 8.38523 325.032 9.62608 324.498 11.0034L330.092 13.1726C330.369 12.4593 330.694 11.9934 331.014 11.6827L326.84 7.37328ZM324.486 11.0346C323.94 12.4897 323.719 14.117 323.719 15.832H329.719C329.719 14.603 329.882 13.7343 330.104 13.1414L324.486 11.0346ZM323.719 15.832V23.768H329.719V15.832H323.719ZM323.719 23.768C323.719 25.4859 323.941 27.1143 324.479 28.5784L330.111 26.5095C329.881 25.883 329.719 24.9941 329.719 23.768H323.719ZM324.506 28.6481C325.043 30.0057 325.806 31.2256 326.84 32.2267L331.014 27.9173C330.682 27.5957 330.358 27.1302 330.084 26.4399L324.506 28.6481ZM326.873 32.2585C327.91 33.2328 329.125 33.9391 330.481 34.3708L332.301 28.6532C331.78 28.4876 331.352 28.2339 330.981 27.8855L326.873 32.2585ZM330.481 34.3708C331.749 34.774 333.083 34.96 334.463 34.96V28.96C333.624 28.96 332.911 28.8473 332.301 28.6532L330.481 34.3708ZM334.463 34.96H335.615V28.96H334.463V34.96ZM350.569 26.2L353.495 25.5368L352.965 23.2H350.569V26.2ZM342.953 26.2V23.2H340.557L340.027 25.5368L342.953 26.2ZM341.865 31V34H344.261L344.791 31.6632L341.865 31ZM337.449 31L334.531 30.3038L333.649 34H337.449V31ZM342.793 8.6V5.6H340.424L339.875 7.90382L342.793 8.6ZM350.729 8.6L353.647 7.90382L353.097 5.6H350.729V8.6ZM356.073 31V34H359.873L358.991 30.3038L356.073 31ZM351.657 31L348.731 31.6632L349.261 34H351.657V31ZM343.849 22.168L340.924 21.4982L340.084 25.168H343.849V22.168ZM349.641 22.168V25.168H353.395L352.567 21.506L349.641 22.168ZM347.049 10.712L349.975 10.05L349.446 7.712H347.049V10.712ZM346.473 10.712V7.712H344.082L343.548 10.0422L346.473 10.712ZM350.569 23.2H342.953V29.2H350.569V23.2ZM340.027 25.5368L338.939 30.3368L344.791 31.6632L345.879 26.8632L340.027 25.5368ZM341.865 28H337.449V34H341.865V28ZM340.367 31.6962L345.711 9.29618L339.875 7.90382L334.531 30.3038L340.367 31.6962ZM342.793 11.6H350.729V5.6H342.793V11.6ZM347.811 9.29618L353.155 31.6962L358.991 30.3038L353.647 7.90382L347.811 9.29618ZM356.073 28H351.657V34H356.073V28ZM354.583 30.3368L353.495 25.5368L347.643 26.8632L348.731 31.6632L354.583 30.3368ZM343.849 25.168H349.641V19.168H343.849V25.168ZM352.567 21.506L349.975 10.05L344.123 11.374L346.715 22.83L352.567 21.506ZM347.049 7.712H346.473V13.712H347.049V7.712ZM343.548 10.0422L340.924 21.4982L346.773 22.8378L349.397 11.3818L343.548 10.0422ZM363.091 31V34H366.091V31H363.091ZM359.059 31H356.059V34H359.059V31ZM359.059 15.128V12.128H356.059V15.128H359.059ZM363.091 15.128H366.091V12.128H363.091V15.128ZM363.091 17.496H360.091V20.496H363.091V17.496ZM363.667 17.496V20.496H365.689L366.447 18.6216L363.667 17.496ZM365.427 15.416L366.98 17.9825V17.9825L365.427 15.416ZM370.418 15.064L369.336 17.8617L369.389 17.8824L369.443 17.9011L370.418 15.064ZM372.211 16.184L374.332 14.0627L372.211 16.184ZM373.395 18.136L370.564 19.1305L370.576 19.1642L370.589 19.1977L373.395 18.136ZM373.842 31V34H376.842V31H373.842ZM369.81 31H366.81V34H369.81V31ZM368.979 19.32L366.643 21.2033L366.677 21.2446L366.711 21.2848L368.979 19.32ZM363.954 19.544L361.539 17.7644L361.531 17.7756L363.954 19.544ZM363.091 28H359.059V34H363.091V28ZM362.059 31V15.128H356.059V31H362.059ZM359.059 18.128H363.091V12.128H359.059V18.128ZM360.091 15.128V17.496H366.091V15.128H360.091ZM363.091 20.496H363.667V14.496H363.091V20.496ZM366.447 18.6216C366.572 18.3128 366.735 18.1307 366.98 17.9825L363.873 12.8495C362.497 13.6826 361.486 14.8872 360.886 16.3704L366.447 18.6216ZM366.98 17.9825C367.256 17.8154 367.651 17.68 368.275 17.68V11.68C366.722 11.68 365.218 12.0353 363.873 12.8495L366.98 17.9825ZM368.275 17.68C368.703 17.68 369.047 17.7501 369.336 17.8617L371.501 12.2663C370.467 11.8659 369.382 11.68 368.275 11.68V17.68ZM369.443 17.9011C369.693 17.9869 369.899 18.1149 370.089 18.3053L374.332 14.0627C373.498 13.2291 372.509 12.6104 371.394 12.2269L369.443 17.9011ZM370.089 18.3053C370.238 18.4537 370.413 18.6993 370.564 19.1305L376.225 17.1415C375.822 15.994 375.207 14.9383 374.332 14.0627L370.089 18.3053ZM370.589 19.1977C370.728 19.5655 370.842 20.1269 370.842 20.952H376.842C376.842 19.6011 376.659 18.2852 376.2 17.0743L370.589 19.1977ZM370.842 20.952V31H376.842V20.952H370.842ZM373.842 28H369.81V34H373.842V28ZM372.81 31V21.976H366.81V31H372.81ZM372.81 21.976C372.81 20.3681 372.412 18.7007 371.246 17.3552L366.711 21.2848C366.694 21.2649 366.712 21.2734 366.74 21.3608C366.77 21.4579 366.81 21.6508 366.81 21.976H372.81ZM371.314 17.4367C370.093 15.9229 368.367 15.328 366.642 15.328V21.328C366.834 21.328 366.873 21.3589 366.822 21.3373C366.797 21.3266 366.761 21.3076 366.723 21.279C366.685 21.2504 366.659 21.2223 366.643 21.2033L371.314 17.4367ZM366.642 15.328C364.696 15.328 362.812 16.0377 361.539 17.7644L366.37 21.3236C366.376 21.3151 366.371 21.3236 366.353 21.3383C366.334 21.3533 366.318 21.3622 366.311 21.3653C366.296 21.372 366.382 21.328 366.642 21.328V15.328ZM361.531 17.7756C360.463 19.2395 360.091 20.998 360.091 22.744H366.091C366.091 21.802 366.294 21.4271 366.378 21.3124L361.531 17.7756ZM360.091 22.744V31H366.091V22.744H360.091ZM378.204 15.128V12.128H375.204V15.128H378.204ZM382.908 15.128V18.128H385.908V15.128H382.908ZM382.908 8.6V5.6H379.908V8.6H382.908ZM386.94 8.6H389.94V5.6H386.94V8.6ZM386.94 15.128H383.94V18.128H386.94V15.128ZM392.668 15.128H395.668V12.128H392.668V15.128ZM392.668 18.968V21.968H395.668V18.968H392.668ZM386.94 18.968V15.968H383.94V18.968H386.94ZM392.092 27.16H395.092V24.16H392.092V27.16ZM392.092 31V34H395.092V31H392.092ZM383.58 30.296L381.41 32.3674L381.434 32.3927L381.459 32.4173L383.58 30.296ZM382.908 18.968H385.908V15.968H382.908V18.968ZM378.204 18.968H375.204V21.968H378.204V18.968ZM378.204 18.128H382.908V12.128H378.204V18.128ZM385.908 15.128V8.6H379.908V15.128H385.908ZM382.908 11.6H386.94V5.6H382.908V11.6ZM383.94 8.6V15.128H389.94V8.6H383.94ZM386.94 18.128H392.668V12.128H386.94V18.128ZM389.668 15.128V18.968H395.668V15.128H389.668ZM392.668 15.968H386.94V21.968H392.668V15.968ZM383.94 18.968V26.2H389.94V18.968H383.94ZM383.94 26.2C383.94 26.909 384.093 28.0009 384.926 28.9269C385.814 29.913 386.967 30.16 387.804 30.16V24.16C388.065 24.16 388.787 24.247 389.386 24.9131C389.932 25.5191 389.94 26.131 389.94 26.2H383.94ZM387.804 30.16H392.092V24.16H387.804V30.16ZM389.092 27.16V31H395.092V27.16H389.092ZM392.092 28H385.372V34H392.092V28ZM385.372 28C385.336 28 385.384 27.9951 385.477 28.0317C385.576 28.0704 385.655 28.1279 385.702 28.1747L381.459 32.4173C382.546 33.5042 383.933 34 385.372 34V28ZM385.75 28.2246C385.801 28.2776 385.853 28.3557 385.885 28.4426C385.916 28.5236 385.908 28.5557 385.908 28.504H379.908C379.908 29.9021 380.365 31.2724 381.41 32.3674L385.75 28.2246ZM385.908 28.504V18.968H379.908V28.504H385.908ZM382.908 15.968H378.204V21.968H382.908V15.968ZM381.204 18.968V15.128H375.204V18.968H381.204ZM398.15 27.16V24.16H395.15V27.16H398.15ZM403.718 27.16V30.16H406.718V27.16H403.718ZM403.718 12.44H406.718V9.44H403.718V12.44ZM398.342 12.44H395.342V15.44H398.342V12.44ZM398.342 8.6V5.6H395.342V8.6H398.342ZM407.75 8.6H410.75V5.6H407.75V8.6ZM407.75 27.16H404.75V30.16H407.75V27.16ZM412.934 27.16H415.934V24.16H412.934V27.16ZM412.934 31V34H415.934V31H412.934ZM398.15 31H395.15V34H398.15V31ZM398.15 30.16H403.718V24.16H398.15V30.16ZM406.718 27.16V12.44H400.718V27.16H406.718ZM403.718 9.44H398.342V15.44H403.718V9.44ZM401.342 12.44V8.6H395.342V12.44H401.342ZM398.342 11.6H407.75V5.6H398.342V11.6ZM404.75 8.6V27.16H410.75V8.6H404.75ZM407.75 30.16H412.934V24.16H407.75V30.16ZM409.934 27.16V31H415.934V27.16H409.934ZM412.934 28H398.15V34H412.934V28ZM401.15 31V27.16H395.15V31H401.15ZM428.592 15.128V12.128H425.592V15.128H428.592ZM432.624 15.128H435.624V12.128H432.624V15.128ZM432.624 31V34H435.624V31H432.624ZM428.592 31H425.592V34H428.592V31ZM428.592 28.696H431.592V25.696H428.592V28.696ZM428.016 28.696V25.696H425.954L425.215 27.6212L428.016 28.696ZM421.264 31.064L420.21 33.873L421.264 31.064ZM419.472 29.88L417.308 31.9576L419.472 29.88ZM418.256 27.896L415.417 28.8671L415.433 28.9126L415.45 28.9577L418.256 27.896ZM417.84 15.128V12.128H414.84V15.128H417.84ZM421.872 15.128H424.872V12.128H421.872V15.128ZM422.672 26.872L420.367 28.7926L420.383 28.8118L420.4 28.8308L422.672 26.872ZM427.728 26.648L425.304 24.8796L425.3 24.8855L425.296 24.8915L427.728 26.648ZM428.592 18.128H432.624V12.128H428.592V18.128ZM429.624 15.128V31H435.624V15.128H429.624ZM432.624 28H428.592V34H432.624V28ZM431.592 31V28.696H425.592V31H431.592ZM428.592 25.696H428.016V31.696H428.592V25.696ZM425.215 27.6212C425.074 27.989 424.923 28.1182 424.798 28.1939C424.634 28.293 424.254 28.448 423.472 28.448V34.448C425.015 34.448 426.555 34.1444 427.906 33.3261C429.296 32.4845 430.254 31.2377 430.817 29.7708L425.215 27.6212ZM423.472 28.448C423.012 28.448 422.636 28.3746 422.317 28.255L420.21 33.873C421.257 34.2654 422.353 34.448 423.472 34.448V28.448ZM422.317 28.255C422.061 28.1589 421.842 28.0166 421.636 27.8024L417.308 31.9576C418.126 32.8101 419.101 33.4571 420.21 33.873L422.317 28.255ZM421.636 27.8024C421.441 27.5994 421.237 27.2985 421.062 26.8343L415.45 28.9577C415.872 30.0722 416.478 31.0939 417.308 31.9576L421.636 27.8024ZM421.094 26.9249C420.948 26.4982 420.84 25.8906 420.84 25.048H414.84C414.84 26.3814 415.009 27.6725 415.417 28.8671L421.094 26.9249ZM420.84 25.048V15.128H414.84V25.048H420.84ZM417.84 18.128H421.872V12.128H417.84V18.128ZM418.872 15.128V24.216H424.872V15.128H418.872ZM418.872 24.216C418.872 25.7978 419.247 27.4479 420.367 28.7926L424.976 24.9514C425.03 25.0161 424.872 24.8955 424.872 24.216H418.872ZM420.4 28.8308C421.665 30.2994 423.417 30.8 425.072 30.8V24.8C424.822 24.8 424.736 24.763 424.754 24.7699C424.764 24.7741 424.795 24.7875 424.836 24.8157C424.877 24.8442 424.914 24.8783 424.944 24.9132L420.4 28.8308ZM425.072 30.8C426.949 30.8 428.885 30.1699 430.16 28.4045L425.296 24.8915C425.311 24.8699 425.338 24.8393 425.376 24.8094C425.413 24.7797 425.443 24.7646 425.454 24.7597C425.472 24.7517 425.372 24.8 425.072 24.8V30.8ZM430.151 28.4164C431.219 26.9525 431.592 25.194 431.592 23.448H425.592C425.592 24.39 425.388 24.7648 425.304 24.8796L430.151 28.4164ZM431.592 23.448V15.128H425.592V23.448H431.592ZM447.961 15.128V12.128H446.116L445.284 13.7746L447.961 15.128ZM452.409 15.128L455.077 16.5016L457.329 12.128H452.409V15.128ZM448.569 22.584L445.902 21.2104L445.569 21.8569V22.584H448.569ZM448.569 23.16H445.569V23.8913L445.906 24.5406L448.569 23.16ZM452.634 31V34H457.568L455.297 29.6194L452.634 31ZM447.993 31L445.288 32.2968L446.105 34H447.993V31ZM445.017 24.792L447.723 23.4952L446.906 21.792H445.017V24.792ZM444.441 24.792V21.792H442.553L441.736 23.4952L444.441 24.792ZM441.466 31V34H443.354L444.171 32.2968L441.466 31ZM436.826 31L434.162 29.6194L431.891 34H436.826V31ZM440.889 23.16L443.553 24.5406L443.889 23.8913V23.16H440.889ZM440.889 22.584H443.889V21.8515L443.552 21.2014L440.889 22.584ZM437.017 15.128V12.128H432.079L434.355 16.5106L437.017 15.128ZM441.497 15.128L444.175 13.7746L443.343 12.128H441.497V15.128ZM444.441 20.952L441.764 22.3054L442.596 23.952H444.441V20.952ZM445.017 20.952V23.952H446.863L447.695 22.3054L445.017 20.952ZM447.961 18.128H452.409V12.128H447.961V18.128ZM449.742 13.7544L445.902 21.2104L451.237 23.9576L455.077 16.5016L449.742 13.7544ZM445.569 22.584V23.16H451.569V22.584H445.569ZM445.906 24.5406L449.97 32.3806L455.297 29.6194L451.233 21.7794L445.906 24.5406ZM452.634 28H447.993V34H452.634V28ZM450.699 29.7032L447.723 23.4952L442.312 26.0888L445.288 32.2968L450.699 29.7032ZM445.017 21.792H444.441V27.792H445.017V21.792ZM441.736 23.4952L438.76 29.7032L444.171 32.2968L447.147 26.0888L441.736 23.4952ZM441.466 28H436.826V34H441.466V28ZM439.489 32.3806L443.553 24.5406L438.226 21.7794L434.162 29.6194L439.489 32.3806ZM443.889 23.16V22.584H437.889V23.16H443.889ZM443.552 21.2014L439.68 13.7454L434.355 16.5106L438.227 23.9666L443.552 21.2014ZM437.017 18.128H441.497V12.128H437.017V18.128ZM438.82 16.4814L441.764 22.3054L447.119 19.5986L444.175 13.7746L438.82 16.4814ZM444.441 23.952H445.017V17.952H444.441V23.952ZM447.695 22.3054L450.639 16.4814L445.284 13.7746L442.34 19.5986L447.695 22.3054ZM460.099 31.512L461.009 34.3708L460.099 31.512ZM462.531 30.072L460.477 27.8855L460.46 27.9012L460.444 27.9173L462.531 30.072ZM464.163 27.544L461.366 26.4594L461.36 26.475L461.354 26.4906L464.163 27.544ZM464.163 12.088L461.347 13.1225L461.36 13.1575L461.374 13.1921L464.163 12.088ZM462.531 9.528L460.444 11.6827L460.46 11.6988L460.477 11.7145L462.531 9.528ZM455.875 7.64H452.875V10.64H455.875V7.64ZM455.875 3.608V0.607998H452.875V3.608H455.875ZM461.699 4.312L460.751 7.15805L460.776 7.16659L460.802 7.17468L461.699 4.312ZM465.443 6.456L463.412 8.66379L463.424 8.6749L463.436 8.68588L465.443 6.456ZM467.971 10.168L465.194 11.3024L465.201 11.3191L465.208 11.3356L467.971 10.168ZM467.971 29.432L465.208 28.2644L465.201 28.2809L465.194 28.2976L467.971 29.432ZM465.443 33.144L463.436 30.9141L463.424 30.9251L463.412 30.9362L465.443 33.144ZM461.699 35.288L460.802 32.4253L460.776 32.4334L460.751 32.442L461.699 35.288ZM455.875 35.992H452.875V38.992H455.875V35.992ZM455.875 31.96V28.96H452.875V31.96H455.875ZM457.027 34.96C458.407 34.96 459.742 34.774 461.009 34.3708L459.19 28.6532C458.58 28.8473 457.866 28.96 457.027 28.96V34.96ZM461.009 34.3708C462.373 33.9368 463.591 33.2225 464.619 32.2267L460.444 27.9173C460.106 28.2442 459.703 28.4898 459.19 28.6532L461.009 34.3708ZM464.585 32.2585C465.666 31.243 466.448 29.9947 466.972 28.5974L461.354 26.4906C461.11 27.1413 460.804 27.5784 460.477 27.8855L464.585 32.2585ZM466.96 28.6286C467.534 27.1479 467.771 25.501 467.771 23.768H461.771C461.771 24.979 461.603 25.8495 461.366 26.4594L466.96 28.6286ZM467.771 23.768V15.832H461.771V23.768H467.771ZM467.771 15.832C467.771 14.1019 467.535 12.4558 466.953 10.9839L461.374 13.1921C461.602 13.7682 461.771 14.6181 461.771 15.832H467.771ZM466.979 11.0535C466.459 9.63727 465.678 8.36793 464.585 7.34145L460.477 11.7145C460.793 12.0107 461.1 12.4481 461.347 13.1225L466.979 11.0535ZM464.619 7.37328C463.591 6.37754 462.373 5.66316 461.009 5.22922L459.19 10.9468C459.703 11.1102 460.106 11.3558 460.444 11.6827L464.619 7.37328ZM461.009 5.22922C459.742 4.82599 458.407 4.64 457.027 4.64V10.64C457.866 10.64 458.58 10.7527 459.19 10.9468L461.009 5.22922ZM457.027 4.64H455.875V10.64H457.027V4.64ZM458.875 7.64V3.608H452.875V7.64H458.875ZM455.875 6.608H457.219V0.607998H455.875V6.608ZM457.219 6.608C458.496 6.608 459.667 6.797 460.751 7.15805L462.648 1.46595C460.915 0.888331 459.1 0.607998 457.219 0.607998V6.608ZM460.802 7.17468C461.824 7.49509 462.682 7.99171 463.412 8.66379L467.474 4.24821C466.072 2.95762 464.433 2.02491 462.596 1.44932L460.802 7.17468ZM463.436 8.68588C464.123 9.30362 464.722 10.1474 465.194 11.3024L470.749 9.03362C469.983 7.15922 468.897 5.52838 467.45 4.22612L463.436 8.68588ZM465.208 11.3356C465.656 12.3953 465.931 13.7818 465.931 15.576H471.931C471.931 13.1889 471.567 10.9701 470.735 9.00035L465.208 11.3356ZM465.931 15.576V24.024H471.931V15.576H465.931ZM465.931 24.024C465.931 25.8182 465.656 27.2047 465.208 28.2644L470.735 30.5997C471.567 28.6299 471.931 26.4111 471.931 24.024H465.931ZM465.194 28.2976C464.722 29.4526 464.123 30.2964 463.436 30.9141L467.45 35.3739C468.897 34.0716 469.983 32.4408 470.749 30.5664L465.194 28.2976ZM463.412 30.9362C462.682 31.6083 461.824 32.1049 460.802 32.4253L462.596 38.1507C464.433 37.5751 466.072 36.6424 467.474 35.3518L463.412 30.9362ZM460.751 32.442C459.667 32.803 458.496 32.992 457.219 32.992V38.992C459.1 38.992 460.915 38.7117 462.648 38.134L460.751 32.442ZM457.219 32.992H455.875V38.992H457.219V32.992ZM458.875 35.992V31.96H452.875V35.992H458.875ZM455.875 34.96H457.027V28.96H455.875V34.96Z" fill="#AC86B4" mask="url(#path-1-outside-1_1_23)"/>
</g>
<defs>
<filter id="filter0_d_1_23" x="0.555084" y="0.608002" width="471.376" height="42.384" filterUnits="userSpaceOnUse" color-interpolation-filters="sRGB">
<feFlood flood-opacity="0" result="BackgroundImageFix"/>
<feColorMatrix in="SourceAlpha" type="matrix" values="0 0 0 0 0 0 0 0 0 0 0 0 0 0 0 0 0 0 127 0" result="hardAlpha"/>
<feOffset dy="4"/>
<feComposite in2="hardAlpha" operator="out"/>
<feColorMatrix type="matrix" values="0 0 0 0 0.67451 0 0 0 0 0.52549 0 0 0 0 0.705882 0 0 0 1 0"/>
<feBlend mode="normal" in2="BackgroundImageFix" result="effect1_dropShadow_1_23"/>
<feBlend mode="normal" in="SourceGraphic" in2="effect1_dropShadow_1_23" result="shape"/>
</filter>
</defs>
</svg>
