<svg width="1440" height="500" viewBox="0 0 1440 500" fill="none" xmlns="http://www.w3.org/2000/svg">
<mask id="path-1-outside-1_26_338" maskUnits="userSpaceOnUse" x="-11" y="0" width="1458" height="509" fill="black">
<rect fill="white" x="-11" width="1458" height="509"/>
<path fill-rule="evenodd" clip-rule="evenodd" d="M1438 9C1394.64 9 1357.86 37.1567 1344.94 76.1824C1318.6 70.1735 1291.17 67 1263 67C1137.33 67 1026.41 130.165 960.263 226.479C942.655 220.97 923.924 218 904.5 218C894.986 218 885.639 218.712 876.509 220.087C859.724 190.196 827.721 170 791 170C739.857 170 697.864 209.176 693.394 259.157C672.781 250.055 649.981 245 626 245C580.4 245 539.069 263.276 508.932 292.903C494.146 273.589 477.342 255.903 458.834 240.158C476.148 231.3 488 213.284 488 192.5C488 162.953 464.047 139 434.5 139C416.427 139 400.447 147.961 390.762 161.683C384.363 153.362 374.308 148 363 148C347.686 148 334.67 157.835 329.922 171.533C300.678 163.366 269.849 159 238 159C144.406 159 59.618 196.707 -2 257.758V500H1438V9Z"/>
</mask>
<path fill-rule="evenodd" clip-rule="evenodd" d="M1438 9C1394.64 9 1357.86 37.1567 1344.94 76.1824C1318.6 70.1735 1291.17 67 1263 67C1137.33 67 1026.41 130.165 960.263 226.479C942.655 220.97 923.924 218 904.5 218C894.986 218 885.639 218.712 876.509 220.087C859.724 190.196 827.721 170 791 170C739.857 170 697.864 209.176 693.394 259.157C672.781 250.055 649.981 245 626 245C580.4 245 539.069 263.276 508.932 292.903C494.146 273.589 477.342 255.903 458.834 240.158C476.148 231.3 488 213.284 488 192.5C488 162.953 464.047 139 434.5 139C416.427 139 400.447 147.961 390.762 161.683C384.363 153.362 374.308 148 363 148C347.686 148 334.67 157.835 329.922 171.533C300.678 163.366 269.849 159 238 159C144.406 159 59.618 196.707 -2 257.758V500H1438V9Z" fill="#F5F5F5"/>
<path d="M1438 9H1447V0H1438V9ZM1344.94 76.1824L1342.94 84.9571L1350.92 86.7759L1353.49 79.0105L1344.94 76.1824ZM960.263 226.479L957.575 235.069L963.919 237.054L967.682 231.575L960.263 226.479ZM876.509 220.087L868.661 224.493L871.704 229.911L877.848 228.986L876.509 220.087ZM693.394 259.157L689.758 267.39L701.24 272.46L702.358 259.958L693.394 259.157ZM508.932 292.903L501.785 298.374L507.977 306.462L515.241 299.321L508.932 292.903ZM458.834 240.158L454.735 232.146L442.74 238.283L453.003 247.013L458.834 240.158ZM390.762 161.683L383.627 167.169L391.072 176.85L398.114 166.873L390.762 161.683ZM329.922 171.533L327.501 180.201L335.653 182.478L338.425 174.48L329.922 171.533ZM-2 257.758L-8.3345 251.365L-11 254.006V257.758H-2ZM-2 500H-11V509H-2V500ZM1438 500V509H1447V500H1438ZM1438 0C1390.65 0 1350.5 30.7545 1336.4 73.3543L1353.49 79.0105C1365.22 43.5588 1398.64 18 1438 18V0ZM1346.94 67.4077C1319.94 61.2501 1291.85 58 1263 58V76C1290.49 76 1317.25 79.0969 1342.94 84.9571L1346.94 67.4077ZM1263 58C1134.24 58 1020.6 122.73 952.844 221.384L967.682 231.575C1032.22 137.6 1140.42 76 1263 76V58ZM962.951 217.89C944.483 212.111 924.846 209 904.5 209V227C923.002 227 940.827 229.828 957.575 235.069L962.951 217.89ZM904.5 209C894.536 209 884.741 209.746 875.169 211.187L877.848 228.986C886.537 227.679 895.436 227 904.5 227V209ZM884.356 215.68C866.043 183.068 831.105 161 791 161V179C824.336 179 853.405 197.324 868.661 224.493L884.356 215.68ZM791 161C735.155 161 689.311 203.775 684.429 258.355L702.358 259.958C706.417 214.578 744.559 179 791 179V161ZM697.029 250.924C675.293 241.326 651.257 236 626 236V254C648.705 254 670.269 258.784 689.758 267.39L697.029 250.924ZM626 236C577.946 236 534.374 255.271 502.622 286.485L515.241 299.321C543.763 271.282 582.855 254 626 254V236ZM516.078 287.432C500.904 267.611 483.659 249.461 464.666 233.303L453.003 247.013C471.025 262.345 487.388 279.568 501.785 298.374L516.078 287.432ZM462.934 248.17C483.138 237.833 497 216.793 497 192.5H479C479 209.775 469.159 224.766 454.735 232.146L462.934 248.17ZM497 192.5C497 157.982 469.018 130 434.5 130V148C459.077 148 479 167.923 479 192.5H497ZM434.5 130C413.379 130 394.709 140.485 383.409 156.493L398.114 166.873C406.186 155.438 419.475 148 434.5 148V130ZM397.896 156.197C389.867 145.756 377.221 139 363 139V157C371.395 157 378.859 160.969 383.627 167.169L397.896 156.197ZM363 139C343.734 139 327.383 151.376 321.418 168.585L338.425 174.48C341.956 164.293 351.638 157 363 157V139ZM332.342 162.865C302.318 154.48 270.675 150 238 150V168C269.023 168 299.038 172.253 327.501 180.201L332.342 162.865ZM238 150C141.938 150 54.9003 188.712 -8.3345 251.365L4.3345 264.152C64.3358 204.702 146.873 168 238 168V150ZM7 500V257.758H-11V500H7ZM1438 491H-2V509H1438V491ZM1429 9V500H1447V9H1429Z" fill="#AC86B4" mask="url(#path-1-outside-1_26_338)"/>
</svg>
