<svg width="244" height="254" viewBox="0 0 244 254" fill="none" xmlns="http://www.w3.org/2000/svg">
<mask id="mask0_1_35" style="mask-type:alpha" maskUnits="userSpaceOnUse" x="0" y="0" width="240" height="254">
<rect width="240" height="254" fill="#AC86B4"/>
</mask>
<g mask="url(#mask0_1_35)">
<mask id="path-2-outside-1_1_35" maskUnits="userSpaceOnUse" x="-127" y="28.4646" width="398" height="352" fill="black">
<rect fill="white" x="-127" y="28.4646" width="398" height="352"/>
<path fill-rule="evenodd" clip-rule="evenodd" d="M205 84.4904C216.598 84.4904 226 74.1872 226 61.4775C226 48.7678 216.598 38.4646 205 38.4646C193.402 38.4646 184 48.7678 184 61.4775C184 74.1872 193.402 84.4904 205 84.4904ZM96.5793 311.27C74.3259 329.601 46.7988 340.439 17 340.439C-57.0062 340.439 -117 273.593 -117 191.135C-117 108.678 -57.0062 41.8323 17 41.8323C52.9403 41.8323 85.5759 57.5975 109.64 83.2599C118.291 76.9518 128.744 73.2644 140 73.2644C169.823 73.2644 194 99.1481 194 131.077C194 131.705 193.991 132.33 193.972 132.953C232.474 145.977 261 193.222 261 249.51C261 315.848 221.377 369.626 172.5 369.626C140.263 369.626 112.052 346.232 96.5793 311.27Z"/>
</mask>
<path fill-rule="evenodd" clip-rule="evenodd" d="M205 84.4904C216.598 84.4904 226 74.1872 226 61.4775C226 48.7678 216.598 38.4646 205 38.4646C193.402 38.4646 184 48.7678 184 61.4775C184 74.1872 193.402 84.4904 205 84.4904ZM96.5793 311.27C74.3259 329.601 46.7988 340.439 17 340.439C-57.0062 340.439 -117 273.593 -117 191.135C-117 108.678 -57.0062 41.8323 17 41.8323C52.9403 41.8323 85.5759 57.5975 109.64 83.2599C118.291 76.9518 128.744 73.2644 140 73.2644C169.823 73.2644 194 99.1481 194 131.077C194 131.705 193.991 132.33 193.972 132.953C232.474 145.977 261 193.222 261 249.51C261 315.848 221.377 369.626 172.5 369.626C140.263 369.626 112.052 346.232 96.5793 311.27Z" fill="#F5F5F5"/>
<path d="M96.5793 311.27L105.724 307.223L100.391 295.175L90.2213 303.552L96.5793 311.27ZM109.64 83.2599L102.346 90.1002L108.391 96.5468L115.532 91.34L109.64 83.2599ZM193.972 132.953L183.977 132.656L183.756 140.054L190.768 142.426L193.972 132.953ZM216 61.4775C216 69.5455 210.233 74.4904 205 74.4904V94.4904C222.963 94.4904 236 78.8289 236 61.4775H216ZM205 48.4646C210.233 48.4646 216 53.4095 216 61.4775H236C236 44.1261 222.963 28.4646 205 28.4646V48.4646ZM194 61.4775C194 53.4095 199.767 48.4646 205 48.4646V28.4646C187.037 28.4646 174 44.1261 174 61.4775H194ZM205 74.4904C199.767 74.4904 194 69.5455 194 61.4775H174C174 78.8289 187.037 94.4904 205 94.4904V74.4904ZM17 350.439C49.2987 350.439 79.0374 338.676 102.937 318.989L90.2213 303.552C69.6143 320.526 44.2989 330.439 17 330.439V350.439ZM-127 191.135C-127 278.072 -63.5186 350.439 17 350.439V330.439C-50.4937 330.439 -107 269.115 -107 191.135H-127ZM17 31.8323C-63.5186 31.8323 -127 104.199 -127 191.135H-107C-107 113.156 -50.4937 51.8323 17 51.8323V31.8323ZM116.935 76.4196C91.1783 48.9527 55.9811 31.8323 17 31.8323V51.8323C49.8995 51.8323 79.9735 66.2423 102.346 90.1002L116.935 76.4196ZM140 63.2644C126.509 63.2644 114.014 67.695 103.749 75.1797L115.532 91.34C122.569 86.2086 130.978 83.2644 140 83.2644V63.2644ZM204 131.077C204 94.2789 175.978 63.2644 140 63.2644V83.2644C163.669 83.2644 184 104.017 184 131.077H204ZM203.968 133.251C203.989 132.529 204 131.804 204 131.077H184C184 131.606 183.992 132.132 183.977 132.656L203.968 133.251ZM271 249.51C271 190.579 241.106 138.34 197.176 123.481L190.768 142.426C223.841 153.613 251 195.865 251 249.51H271ZM172.5 379.626C200.869 379.626 225.726 363.998 243.13 340.376C260.536 316.751 271 284.592 271 249.51H251C251 280.765 241.652 308.665 227.028 328.513C212.401 348.365 193.008 359.626 172.5 359.626V379.626ZM87.4348 315.317C103.901 352.525 134.995 379.626 172.5 379.626V359.626C145.531 359.626 120.202 339.939 105.724 307.223L87.4348 315.317Z" fill="#AC86B4" mask="url(#path-2-outside-1_1_35)"/>
</g>
</svg>
